<svg width="186" height="71" viewBox="0 0 186 71" fill="none" xmlns="http://www.w3.org/2000/svg">
<path d="M167.99 70.255C166.523 70.255 165.79 69.8517 165.79 69.045C165.79 68.4583 166.102 67.8533 166.725 67.23C167.202 66.7533 167.733 66.3683 168.32 66.075C168.907 65.7817 169.273 65.635 169.42 65.635C169.603 65.635 169.695 65.7083 169.695 65.855C169.732 66.0017 169.658 66.1117 169.475 66.185C169.108 66.405 168.687 66.7167 168.21 67.12C167.77 67.4867 167.55 67.89 167.55 68.33C167.55 68.9167 167.898 69.21 168.595 69.21C169.438 69.21 170.318 68.9533 171.235 68.44C172.152 67.9633 172.995 67.34 173.765 66.57C174.572 65.8 175.213 65.03 175.69 64.26C176.203 63.4533 176.46 62.7567 176.46 62.17C176.46 61.6933 176.295 61.2533 175.965 60.85C175.635 60.4467 174.957 59.97 173.93 59.42C173.233 59.0167 172.555 58.595 171.895 58.155C171.272 57.715 170.795 57.1833 170.465 56.56C170.172 57.0733 169.787 57.6967 169.31 58.43C168.87 59.1267 168.338 59.86 167.715 60.63C167.495 60.85 167.275 60.96 167.055 60.96C166.835 60.96 166.725 60.8683 166.725 60.685C166.725 60.575 166.817 60.3917 167 60.135C167.99 58.9617 168.723 57.88 169.2 56.89C169.677 55.9 170.007 55.1483 170.19 54.635C170.337 53.5717 170.832 52.5633 171.675 51.61C172.518 50.6567 173.545 49.8317 174.755 49.135C175.965 48.4017 177.193 47.8333 178.44 47.43C179.723 47.0267 180.86 46.825 181.85 46.825C182.84 46.825 183.72 47.0083 184.49 47.375C185.26 47.7417 185.645 48.3283 185.645 49.135C185.645 49.575 185.517 50.0517 185.26 50.565C184.93 51.2617 184.38 51.885 183.61 52.435C183.573 52.4717 183.518 52.49 183.445 52.49C183.152 52.49 183.005 52.3617 183.005 52.105C183.005 51.9217 183.097 51.7383 183.28 51.555C183.573 51.2983 183.812 50.9867 183.995 50.62C184.178 50.2533 184.27 49.905 184.27 49.575C184.27 48.915 183.885 48.585 183.115 48.585C182.308 48.585 181.245 48.805 179.925 49.245C178.642 49.685 177.45 50.2533 176.35 50.95C175.103 51.7567 174.058 52.6367 173.215 53.59C172.372 54.5433 171.95 55.3867 171.95 56.12C171.95 56.4867 172.06 56.835 172.28 57.165C172.537 57.4583 173.013 57.8067 173.71 58.21C174.077 58.43 174.59 58.7233 175.25 59.09C175.91 59.42 176.478 59.7317 176.955 60.025C178.458 60.9417 179.21 61.9133 179.21 62.94C179.21 63.7833 178.843 64.645 178.11 65.525C177.377 66.3683 176.423 67.1383 175.25 67.835C174.113 68.5683 172.903 69.155 171.62 69.595C170.337 70.035 169.127 70.255 167.99 70.255Z" fill="#FBD279"/>
<path d="M158.239 68.055C157.615 68.055 157.029 67.9083 156.479 67.615C155.965 67.3217 155.58 66.7717 155.324 65.965C155.214 65.635 155.159 65.1767 155.159 64.59C155.159 63.7833 155.269 62.885 155.489 61.895C155.709 60.905 155.947 60.0617 156.204 59.365C156.02 59.4383 155.672 59.7683 155.159 60.355C154.682 60.905 154.077 61.5833 153.344 62.39C152.647 63.16 151.859 63.9483 150.979 64.755C150.135 65.525 149.255 66.1667 148.339 66.68C147.422 67.1933 146.524 67.45 145.644 67.45C145.057 67.45 144.434 67.285 143.774 66.955C143.114 66.5883 142.582 66.13 142.179 65.58C141.629 64.8467 141.354 64.095 141.354 63.325C141.354 62.335 141.684 61.3083 142.344 60.245C143.04 59.1817 143.92 58.155 144.984 57.165C146.084 56.1383 147.239 55.2217 148.449 54.415C149.695 53.5717 150.869 52.875 151.969 52.325C153.105 51.7383 154.022 51.3533 154.719 51.17C155.452 50.95 156.277 50.84 157.194 50.84C157.707 50.84 158.239 50.9133 158.789 51.06C159.339 51.17 159.797 51.3717 160.164 51.665C160.457 51.8117 160.695 52.0133 160.879 52.27C161.062 52.5267 161.154 52.8017 161.154 53.095C161.154 53.3883 161.025 53.48 160.769 53.37C160.475 52.93 160.072 52.655 159.559 52.545C159.082 52.3983 158.587 52.325 158.074 52.325C156.607 52.325 154.994 52.8017 153.234 53.755C151.474 54.7083 149.897 55.8267 148.504 57.11C148.064 57.4767 147.459 58.1183 146.689 59.035C145.955 59.915 145.277 60.8867 144.654 61.95C144.03 63.0133 143.719 63.985 143.719 64.865C143.719 65.3417 143.847 65.7633 144.104 66.13C144.25 66.3867 144.489 66.515 144.819 66.515C145.332 66.515 146.01 66.24 146.854 65.69C147.734 65.14 148.632 64.48 149.549 63.71C150.465 62.9033 151.29 62.1333 152.024 61.4C152.794 60.6667 153.344 60.135 153.674 59.805C153.857 59.6217 154.205 59.255 154.719 58.705C155.269 58.1183 155.855 57.495 156.479 56.835C157.102 56.175 157.652 55.6067 158.129 55.13C158.642 54.6533 158.972 54.415 159.119 54.415C159.302 54.415 159.595 54.47 159.999 54.58C160.439 54.6533 160.805 54.7817 161.099 54.965C161.392 55.1483 161.447 55.3867 161.264 55.68C160.31 57.0733 159.54 58.54 158.954 60.08C158.404 61.5833 158.074 62.775 157.964 63.655C157.927 63.8017 157.909 63.9483 157.909 64.095C157.909 64.205 157.909 64.3333 157.909 64.48C157.909 65.9467 158.422 66.68 159.449 66.68C159.999 66.68 160.732 66.35 161.649 65.69C162.565 65.03 163.5 64.2417 164.454 63.325C165.407 62.4083 166.269 61.5283 167.039 60.685C167.845 59.805 168.395 59.145 168.689 58.705C168.799 58.595 168.909 58.54 169.019 58.54C169.165 58.54 169.294 58.6133 169.404 58.76C169.514 58.87 169.514 59.0167 169.404 59.2C169 59.86 168.414 60.6483 167.644 61.565C166.874 62.4817 166.012 63.3983 165.059 64.315C164.105 65.2317 163.17 66.02 162.254 66.68C161.777 67.0467 161.172 67.3583 160.439 67.615C159.705 67.9083 158.972 68.055 158.239 68.055Z" fill="#FBD279"/>
<path d="M110.323 68.22C110.03 68.22 109.938 68.0917 110.048 67.835C110.195 67.5784 110.451 66.9367 110.818 65.91C111.221 64.8467 111.661 63.6 112.138 62.17C112.651 60.74 113.146 59.365 113.623 58.045C113.256 58.595 112.853 59.1267 112.413 59.64C112.01 60.1533 111.661 60.575 111.368 60.905C111.258 61.015 111.185 61.07 111.148 61.07C111.038 61.07 110.983 60.96 110.983 60.74C110.983 60.3 111.093 59.8967 111.313 59.53C112.083 58.54 112.67 57.77 113.073 57.22C113.476 56.6333 113.806 56.12 114.063 55.68C114.356 55.2033 114.65 54.6717 114.943 54.085C115.016 53.6817 115.145 53.1867 115.328 52.6C115.548 52.0133 116.043 51.72 116.813 51.72C117.95 51.72 118.518 51.9584 118.518 52.435C118.518 52.5817 118.481 52.7467 118.408 52.93C118.335 53.0767 118.261 53.2417 118.188 53.425C117.748 54.415 117.271 55.5517 116.758 56.835C116.245 58.1183 115.768 59.3283 115.328 60.465C114.925 61.6017 114.613 62.4817 114.393 63.105C114.796 62.5917 115.401 61.8767 116.208 60.96C117.015 60.0067 117.931 58.98 118.958 57.88C120.021 56.7433 121.103 55.68 122.203 54.69C123.34 53.6633 124.403 52.82 125.393 52.16C126.383 51.5 127.226 51.17 127.923 51.17C128.766 51.17 129.188 51.6467 129.188 52.6C129.188 53.3333 128.895 54.2867 128.308 55.46C128.051 56.01 127.703 56.7617 127.263 57.715C126.823 58.6317 126.475 59.3283 126.218 59.805C126.878 59.2183 127.63 58.5767 128.473 57.88C129.316 57.1467 130.196 56.4683 131.113 55.845C132.066 55.2217 132.946 54.7633 133.753 54.47C133.936 54.3967 134.303 54.2867 134.853 54.14C135.403 53.9567 135.88 53.865 136.283 53.865C136.833 53.865 137.108 54.0483 137.108 54.415C137.108 54.6717 136.98 54.9467 136.723 55.24C136.1 56.1934 135.531 57.22 135.018 58.32C134.541 59.3833 134.156 60.3917 133.863 61.345C133.57 62.2983 133.386 63.0684 133.313 63.655C133.276 63.8017 133.258 63.9483 133.258 64.095C133.258 64.205 133.258 64.3333 133.258 64.48C133.258 65.9467 133.735 66.68 134.688 66.68C135.275 66.68 136.026 66.3684 136.943 65.745C137.86 65.085 138.795 64.2967 139.748 63.38C140.701 62.4267 141.563 61.5284 142.333 60.685C143.14 59.805 143.69 59.145 143.983 58.705C144.093 58.595 144.203 58.54 144.313 58.54C144.46 58.54 144.57 58.595 144.643 58.705C144.753 58.815 144.771 58.9617 144.698 59.145C144.368 59.7683 143.8 60.5567 142.993 61.51C142.223 62.4267 141.343 63.3617 140.353 64.315C139.4 65.2317 138.465 66.02 137.548 66.68C137.071 67.0467 136.466 67.3584 135.733 67.615C135.036 67.9084 134.321 68.055 133.588 68.055C132.928 68.055 132.323 67.9084 131.773 67.615C131.26 67.3217 130.875 66.7717 130.618 65.965C130.508 65.635 130.453 65.2133 130.453 64.7C130.453 63.8933 130.563 62.9767 130.783 61.95C131.003 60.9233 131.241 60.0617 131.498 59.365C131.681 58.8517 131.92 58.2833 132.213 57.66C132.543 57 132.836 56.45 133.093 56.01C131.956 56.45 130.856 57.11 129.793 57.99C128.73 58.87 127.758 59.7684 126.878 60.685C126.035 61.565 125.32 62.2984 124.733 62.885C124.586 63.2884 124.293 63.6183 123.853 63.875C123.45 64.1317 123.065 64.26 122.698 64.26C122.148 64.26 121.873 64.0217 121.873 63.545C121.873 63.3617 121.928 63.1417 122.038 62.885C122.405 62.005 122.808 61.1067 123.248 60.19C123.725 59.2367 124.146 58.375 124.513 57.605C124.916 56.835 125.191 56.3034 125.338 56.01C125.631 55.4967 125.778 55.0933 125.778 54.8C125.778 54.5067 125.65 54.36 125.393 54.36C125.136 54.36 124.715 54.525 124.128 54.855C123.541 55.185 122.771 55.7717 121.818 56.615C121.048 57.3117 120.205 58.2284 119.288 59.365C118.371 60.465 117.491 61.6017 116.648 62.775C115.805 63.9484 115.053 64.9567 114.393 65.8C113.77 66.6433 113.33 67.1383 113.073 67.285C112.853 67.395 112.413 67.5784 111.753 67.835C111.13 68.0917 110.653 68.22 110.323 68.22Z" fill="#FBD279"/>
<path d="M101.976 68.055C101.316 68.055 100.711 67.9083 100.161 67.615C99.6472 67.3217 99.2622 66.7717 99.0055 65.965C98.9689 65.855 98.9322 65.745 98.8955 65.635C98.8955 65.525 98.8955 65.3967 98.8955 65.25C98.8955 64.5167 99.0605 63.6 99.3905 62.5C99.7205 61.4 100.124 60.3367 100.601 59.31C100.381 59.6033 100.124 59.97 99.8305 60.41C99.5372 60.8133 99.1155 61.345 98.5655 62.005C98.4189 62.1517 98.2539 62.225 98.0705 62.225C97.8139 62.225 97.6855 62.0783 97.6855 61.785C97.6855 61.565 97.7589 61.3817 97.9055 61.235C98.8589 60.025 99.7022 58.9433 100.436 57.99C101.206 57.0367 101.774 56.23 102.141 55.57C102.141 55.4967 102.251 55.2767 102.471 54.91C102.691 54.5067 102.984 53.9567 103.351 53.26C103.057 53.2967 102.801 53.3333 102.581 53.37C102.397 53.37 102.232 53.37 102.086 53.37C101.829 53.37 101.609 53.26 101.426 53.04C101.242 52.82 101.224 52.545 101.371 52.215C101.554 51.7017 101.957 51.4083 102.581 51.335C103.204 51.2617 103.754 51.2067 104.231 51.17C104.267 51.0967 104.341 51.06 104.451 51.06C104.891 50.2533 105.312 49.465 105.716 48.695C106.119 47.925 106.449 47.2833 106.706 46.77C106.999 46.2567 107.146 45.9817 107.146 45.945C107.879 44.7717 108.356 44.0017 108.576 43.635C108.796 43.2317 109.089 42.9933 109.456 42.92C109.859 42.8833 110.281 42.9017 110.721 42.975C111.197 43.0483 111.509 43.2133 111.656 43.47C111.766 43.6167 111.821 43.8 111.821 44.02C111.821 44.35 111.747 44.68 111.601 45.01C111.454 45.3033 111.307 45.5417 111.161 45.725C111.014 45.9817 110.812 46.165 110.556 46.275C110.336 46.3483 110.134 46.5683 109.951 46.935C109.584 47.6317 109.181 48.3833 108.741 49.19C108.301 49.9967 107.842 50.7667 107.366 51.5L108.026 51.445C108.906 51.3717 109.731 51.28 110.501 51.17C111.307 51.06 112.224 51.0233 113.251 51.06C113.434 51.06 113.617 51.0967 113.801 51.17C114.021 51.2067 114.131 51.28 114.131 51.39C114.131 51.5367 113.654 51.7383 112.701 51.995C112.334 52.1417 111.527 52.3067 110.281 52.49C109.071 52.6367 107.824 52.7833 106.541 52.93C106.174 53.6267 105.844 54.2133 105.551 54.69C105.257 55.13 105.056 55.46 104.946 55.68C104.139 57.3667 103.406 58.9067 102.746 60.3C102.122 61.6567 101.774 62.775 101.701 63.655C101.664 63.8017 101.646 63.9483 101.646 64.095C101.646 64.205 101.646 64.3333 101.646 64.48C101.646 65.9467 102.122 66.68 103.076 66.68C103.662 66.68 104.414 66.3683 105.331 65.745C106.247 65.085 107.182 64.2967 108.136 63.38C109.089 62.4267 109.951 61.5283 110.721 60.685C111.527 59.805 112.077 59.145 112.371 58.705C112.481 58.595 112.591 58.54 112.701 58.54C112.847 58.54 112.957 58.595 113.031 58.705C113.141 58.815 113.159 58.9617 113.086 59.145C112.756 59.7683 112.187 60.5567 111.381 61.51C110.611 62.4267 109.731 63.3617 108.741 64.315C107.787 65.2317 106.852 66.02 105.936 66.68C105.459 67.0467 104.854 67.3583 104.121 67.615C103.424 67.9083 102.709 68.055 101.976 68.055Z" fill="#FBD279"/>
<path d="M84.0413 70.255C82.5746 70.255 81.8413 69.8517 81.8413 69.045C81.8413 68.4583 82.153 67.8533 82.7763 67.23C83.253 66.7533 83.7846 66.3683 84.3713 66.075C84.958 65.7817 85.3246 65.635 85.4713 65.635C85.6546 65.635 85.7463 65.7083 85.7463 65.855C85.783 66.0017 85.7096 66.1117 85.5263 66.185C85.1596 66.405 84.738 66.7167 84.2613 67.12C83.8213 67.4867 83.6013 67.89 83.6013 68.33C83.6013 68.9167 83.9496 69.21 84.6463 69.21C85.4896 69.21 86.3696 68.9533 87.2863 68.44C88.203 67.9633 89.0463 67.34 89.8163 66.57C90.623 65.8 91.2646 65.03 91.7413 64.26C92.2546 63.4533 92.5113 62.7567 92.5113 62.17C92.5113 61.6933 92.3463 61.2533 92.0163 60.85C91.6863 60.4467 91.008 59.97 89.9813 59.42C89.2846 59.0167 88.6063 58.595 87.9463 58.155C87.323 57.715 86.8463 57.1833 86.5163 56.56C86.223 57.0733 85.838 57.6967 85.3613 58.43C84.9213 59.1267 84.3896 59.86 83.7663 60.63C83.5463 60.85 83.3263 60.96 83.1063 60.96C82.8863 60.96 82.7763 60.8683 82.7763 60.685C82.7763 60.575 82.868 60.3917 83.0513 60.135C84.0413 58.9617 84.7746 57.88 85.2513 56.89C85.728 55.9 86.058 55.1483 86.2413 54.635C86.388 53.5717 86.883 52.5633 87.7263 51.61C88.5696 50.6567 89.5963 49.8317 90.8063 49.135C92.0163 48.4017 93.2446 47.8333 94.4913 47.43C95.7746 47.0267 96.9113 46.825 97.9013 46.825C98.8913 46.825 99.7713 47.0083 100.541 47.375C101.311 47.7417 101.696 48.3283 101.696 49.135C101.696 49.575 101.568 50.0517 101.311 50.565C100.981 51.2617 100.431 51.885 99.6613 52.435C99.6246 52.4717 99.5696 52.49 99.4963 52.49C99.203 52.49 99.0563 52.3617 99.0563 52.105C99.0563 51.9217 99.148 51.7383 99.3313 51.555C99.6246 51.2983 99.863 50.9867 100.046 50.62C100.23 50.2533 100.321 49.905 100.321 49.575C100.321 48.915 99.9363 48.585 99.1663 48.585C98.3596 48.585 97.2963 48.805 95.9763 49.245C94.693 49.685 93.5013 50.2533 92.4013 50.95C91.1546 51.7567 90.1096 52.6367 89.2663 53.59C88.423 54.5433 88.0013 55.3867 88.0013 56.12C88.0013 56.4867 88.1113 56.835 88.3313 57.165C88.588 57.4583 89.0646 57.8067 89.7613 58.21C90.128 58.43 90.6413 58.7233 91.3013 59.09C91.9613 59.42 92.5296 59.7317 93.0063 60.025C94.5096 60.9417 95.2613 61.9133 95.2613 62.94C95.2613 63.7833 94.8946 64.645 94.1613 65.525C93.428 66.3683 92.4746 67.1383 91.3013 67.835C90.1646 68.5683 88.9546 69.155 87.6713 69.595C86.388 70.035 85.178 70.255 84.0413 70.255Z" fill="#FBD279"/>
<path d="M80.1493 48.365C79.6726 48.365 79.1776 48.3283 78.6643 48.255C78.1509 48.145 77.8943 47.7967 77.8943 47.21C77.8943 47.1 78.1326 46.8433 78.6093 46.44C79.1226 46.0367 79.6359 45.6333 80.1493 45.23C80.6993 44.79 81.0293 44.5333 81.1393 44.46C81.7626 43.9467 82.1476 43.69 82.2943 43.69C82.4776 43.69 82.4776 43.9283 82.2943 44.405C82.1109 44.8817 82.0193 45.3033 82.0193 45.67C82.0193 45.8533 81.9093 46.165 81.6893 46.605C81.4693 47.045 81.2126 47.4483 80.9193 47.815C80.6259 48.1817 80.3693 48.365 80.1493 48.365ZM74.1543 68.055C73.4943 68.055 72.8893 67.9083 72.3393 67.615C71.8259 67.3217 71.4409 66.7717 71.1843 65.965C71.1476 65.855 71.1109 65.745 71.0743 65.635C71.0743 65.525 71.0743 65.3967 71.0743 65.25C71.0743 64.5167 71.2393 63.6 71.5693 62.5C71.8993 61.4 72.3026 60.3367 72.7793 59.31C72.5593 59.6033 72.3026 59.97 72.0093 60.41C71.7159 60.8133 71.2943 61.345 70.7443 62.005C70.5976 62.1517 70.4326 62.225 70.2493 62.225C69.9926 62.225 69.8643 62.0783 69.8643 61.785C69.8643 61.565 69.9376 61.3817 70.0843 61.235C71.0376 60.025 71.8809 58.9433 72.6143 57.99C73.3843 57.0367 73.9526 56.23 74.3193 55.57C74.3193 55.5333 74.3009 55.515 74.2643 55.515C74.2643 55.4783 74.2643 55.4417 74.2643 55.405C74.2643 55.295 74.3193 55.13 74.4293 54.91C74.7226 54.03 75.0159 53.2967 75.3093 52.71C75.6393 52.0867 75.9876 51.7383 76.3543 51.665C76.4276 51.665 76.5009 51.665 76.5743 51.665C76.6476 51.6283 76.7209 51.61 76.7943 51.61C77.1976 51.61 77.5643 51.7017 77.8943 51.885C78.2243 52.0683 78.3893 52.3433 78.3893 52.71C78.3893 53.04 78.2609 53.4433 78.0043 53.92C77.7843 54.3967 77.4909 54.9833 77.1243 55.68C76.3176 57.3667 75.5843 58.9067 74.9243 60.3C74.3009 61.6567 73.9526 62.775 73.8793 63.655C73.8426 63.8017 73.8243 63.9483 73.8243 64.095C73.8243 64.205 73.8243 64.3333 73.8243 64.48C73.8243 65.9467 74.3009 66.68 75.2543 66.68C75.8409 66.68 76.5926 66.3683 77.5093 65.745C78.4259 65.085 79.3609 64.2967 80.3143 63.38C81.2676 62.4267 82.1293 61.5283 82.8993 60.685C83.7059 59.805 84.2559 59.145 84.5493 58.705C84.6593 58.595 84.7693 58.54 84.8793 58.54C85.0259 58.54 85.1359 58.595 85.2093 58.705C85.3193 58.815 85.3376 58.9617 85.2643 59.145C84.9343 59.7683 84.3659 60.5567 83.5593 61.51C82.7893 62.4267 81.9093 63.3617 80.9193 64.315C79.9659 65.2317 79.0309 66.02 78.1143 66.68C77.6376 67.0467 77.0326 67.3583 76.2993 67.615C75.6026 67.9083 74.8876 68.055 74.1543 68.055Z" fill="#FBD279"/>
<path d="M61.8541 68.165C61.2307 68.165 60.6807 68.0183 60.2041 67.725C59.7274 67.4683 59.3974 66.955 59.2141 66.185C59.1041 65.7817 59.0491 65.3783 59.0491 64.975C59.0491 63.875 59.3241 62.8117 59.8741 61.785C60.4607 60.7217 61.1391 59.75 61.9091 58.87C62.6791 57.9533 63.3391 57.1833 63.8891 56.56C64.1824 56.2667 64.5124 55.8817 64.8791 55.405C65.2824 54.9283 65.4841 54.4517 65.4841 53.975C65.4841 53.6817 65.3374 53.4067 65.0441 53.15C64.7507 52.8567 64.2191 52.655 63.4491 52.545C63.0091 52.4717 62.5874 52.4167 62.1841 52.38C61.8174 52.3067 61.4324 52.27 61.0291 52.27C60.0024 53.6633 58.9941 55.075 58.0041 56.505C57.0507 57.8983 56.0241 59.2733 54.9241 60.63C54.6674 60.8867 54.4474 61.015 54.2641 61.015C54.0441 61.015 53.9341 60.905 53.9341 60.685C53.9341 60.465 54.0441 60.245 54.2641 60.025C56.2441 57.605 57.9491 55.02 59.3791 52.27C59.1957 52.27 58.9207 52.27 58.5541 52.27C58.1874 52.2333 57.8941 52.1967 57.6741 52.16C57.4174 52.0867 57.2157 51.9767 57.0691 51.83C56.9224 51.6833 56.8491 51.5367 56.8491 51.39C56.8491 51.17 56.9407 51.0417 57.1241 51.005C57.6007 50.8583 58.1141 50.6383 58.6641 50.345C59.2141 50.0517 59.7274 49.6667 60.2041 49.19C60.7174 48.6767 61.1941 48.145 61.6341 47.595C62.0741 47.0083 62.4224 46.5683 62.6791 46.275C62.9358 46.0917 63.2107 46 63.5041 46C63.6874 46 63.8524 46.055 63.9991 46.165C64.1824 46.275 64.2741 46.44 64.2741 46.66C64.2741 46.9167 64.1641 47.2467 63.9441 47.65C63.6141 48.1633 63.2474 48.7317 62.8441 49.355C62.4774 49.9783 62.1291 50.5467 61.7991 51.06C62.4591 51.0967 63.1191 51.1333 63.7791 51.17C64.4391 51.2067 65.1174 51.225 65.8141 51.225C66.1807 51.225 66.5291 51.225 66.8591 51.225C67.2258 51.1883 67.5924 51.17 67.9591 51.17C69.0591 51.17 69.6091 51.445 69.6091 51.995C69.6091 52.3617 69.4074 52.82 69.0041 53.37C68.6374 53.8833 68.1791 54.4517 67.6291 55.075C66.3824 56.505 65.3191 58.0083 64.4391 59.585C63.5591 61.1617 62.9724 62.3717 62.6791 63.215C62.3858 64.095 62.2391 64.755 62.2391 65.195C62.2391 66.075 62.5874 66.515 63.2841 66.515C63.9074 66.515 64.6591 66.2033 65.5391 65.58C66.4557 64.9567 67.3908 64.205 68.3441 63.325C69.2974 62.4083 70.1591 61.5283 70.9291 60.685C71.6991 59.805 72.2491 59.145 72.5791 58.705C72.6524 58.595 72.7624 58.54 72.9091 58.54C73.0557 58.54 73.1841 58.6133 73.2941 58.76C73.4041 58.87 73.4041 59.0167 73.2941 59.2C72.8907 59.8233 72.3041 60.6117 71.5341 61.565C70.7641 62.4817 69.9024 63.3983 68.9491 64.315C67.9957 65.2317 67.0607 66.02 66.1441 66.68C65.6674 67.0467 65.0074 67.3767 64.1641 67.67C63.3574 68 62.5874 68.165 61.8541 68.165Z" fill="#FBD279"/>
<path d="M30.4347 68.22C30.1414 68.22 30.0681 68.0917 30.2147 67.835C30.2881 67.615 30.4714 67.065 30.7647 66.185C31.0947 65.305 31.4797 64.2417 31.9197 62.995C32.3597 61.7483 32.8181 60.4833 33.2947 59.2C33.7714 57.88 34.2114 56.7067 34.6147 55.68C34.3581 56.01 33.9547 56.4867 33.4047 57.11C32.8914 57.7333 32.3414 58.3933 31.7547 59.09C31.1681 59.7867 30.6181 60.3917 30.1047 60.905C29.9947 61.015 29.9214 61.07 29.8847 61.07C29.7747 61.07 29.7197 60.96 29.7197 60.74C29.7197 60.3 29.8297 59.8967 30.0497 59.53C30.8564 58.5033 31.6264 57.55 32.3597 56.67C33.1297 55.7533 33.8264 54.8917 34.4497 54.085C34.0831 53.865 33.8997 53.59 33.8997 53.26C33.8997 52.7467 34.1564 52.49 34.6697 52.49C34.8897 52.49 35.0547 52.5267 35.1647 52.6C35.2014 52.6367 35.2381 52.655 35.2747 52.655C35.3114 52.655 35.3481 52.6917 35.3847 52.765C35.5681 52.5083 35.7147 52.27 35.8247 52.05C35.9714 51.83 36.0997 51.5917 36.2097 51.335C36.3564 51.005 36.6497 50.3817 37.0897 49.465C37.5664 48.5117 38.1531 47.3933 38.8497 46.11C39.5464 44.8267 40.3347 43.5067 41.2147 42.15C42.1314 40.7567 43.1031 39.4733 44.1297 38.3C45.1931 37.09 46.2747 36.1183 47.3747 35.385C48.5114 34.6517 49.6664 34.285 50.8397 34.285C50.9864 34.285 51.1331 34.3033 51.2797 34.34C51.4264 34.34 51.5731 34.3583 51.7197 34.395C52.6364 34.5783 53.2781 34.9083 53.6447 35.385C54.0114 35.825 54.1947 36.3567 54.1947 36.98C54.1947 37.42 54.1031 37.8967 53.9197 38.41C53.7731 38.8867 53.5531 39.3633 53.2597 39.84C52.5264 41.1233 51.5547 42.425 50.3447 43.745C49.1347 45.0283 47.7781 46.3117 46.2747 47.595C44.8081 48.8417 43.3231 50.07 41.8197 51.28C40.3531 52.4533 38.9781 53.5717 37.6947 54.635C36.8147 56.505 36.1364 58.1733 35.6597 59.64C35.1831 61.07 34.8164 62.225 34.5597 63.105C34.9631 62.5917 35.5681 61.8583 36.3747 60.905C37.1814 59.9517 38.0981 58.925 39.1247 57.825C40.1514 56.725 41.2147 55.68 42.3147 54.69C43.4147 53.6633 44.4597 52.8383 45.4497 52.215C46.4397 51.555 47.2831 51.225 47.9797 51.225C48.8597 51.225 49.2997 51.6833 49.2997 52.6C49.2997 53.48 48.9881 54.4517 48.3647 55.515C47.7414 56.5783 47.2281 57.4767 46.8247 58.21C46.3114 59.2733 45.8897 60.3 45.5597 61.29C45.2664 62.2433 45.0831 63.0317 45.0097 63.655C44.9731 63.8017 44.9547 63.9483 44.9547 64.095C44.9547 64.205 44.9547 64.3333 44.9547 64.48C44.9547 65.9467 45.4681 66.68 46.4947 66.68C47.0447 66.68 47.7781 66.35 48.6947 65.69C49.6114 65.03 50.5464 64.2417 51.4997 63.325C52.4531 62.4083 53.3147 61.5283 54.0847 60.685C54.8914 59.805 55.4414 59.145 55.7347 58.705C55.8447 58.595 55.9731 58.54 56.1197 58.54C56.2664 58.54 56.3764 58.595 56.4497 58.705C56.5231 58.815 56.5231 58.9617 56.4497 59.145C56.0831 59.7683 55.5147 60.5567 54.7447 61.51C53.9747 62.4267 53.1131 63.3617 52.1597 64.315C51.2064 65.2317 50.2714 66.02 49.3547 66.68C48.8781 67.0467 48.2547 67.3583 47.4847 67.615C46.7514 67.9083 46.0181 68.055 45.2847 68.055C44.6981 68.055 44.1297 67.9083 43.5797 67.615C43.0297 67.3217 42.6264 66.7717 42.3697 65.965C42.2597 65.635 42.2047 65.1767 42.2047 64.59C42.2047 64.4067 42.2047 64.2233 42.2047 64.04C42.2047 63.82 42.2231 63.6 42.2597 63.38C42.4064 62.2067 42.7914 60.9783 43.4147 59.695C44.0747 58.375 44.6797 57.2017 45.2297 56.175C45.3764 55.8817 45.4864 55.625 45.5597 55.405C45.6697 55.185 45.7247 55.0017 45.7247 54.855C45.7247 54.5617 45.5964 54.415 45.3397 54.415C45.0831 54.415 44.6797 54.58 44.1297 54.91C43.5797 55.24 42.8464 55.8083 41.9297 56.615C41.1231 57.3117 40.2614 58.2283 39.3447 59.365C38.4647 60.465 37.5847 61.6017 36.7047 62.775C35.8614 63.9483 35.1097 64.9567 34.4497 65.8C33.8264 66.6433 33.3864 67.1383 33.1297 67.285C32.9464 67.395 32.5247 67.5783 31.8647 67.835C31.2047 68.0917 30.7281 68.22 30.4347 68.22ZM38.7397 52.16C40.2064 51.17 41.8014 49.9417 43.5247 48.475C45.2481 46.9717 46.8614 45.3767 48.3647 43.69C49.9047 41.9667 51.0781 40.335 51.8847 38.795C52.3247 37.9517 52.5447 37.255 52.5447 36.705C52.5447 36.0817 52.2697 35.77 51.7197 35.77C51.4631 35.77 51.1697 35.8433 50.8397 35.99C50.5097 36.1 50.1247 36.32 49.6847 36.65C47.2281 38.5567 45.1564 40.83 43.4697 43.47C41.7831 46.0733 40.2064 48.97 38.7397 52.16Z" fill="#FBD279"/>
<path d="M10.45 70.035C8.54333 70.035 6.78333 69.705 5.17 69.045C3.59333 68.4217 2.32833 67.45 1.375 66.13C0.458333 64.7733 0 63.05 0 60.96C0 59.7867 0.165 58.5217 0.495 57.165C1.00833 55.0017 1.85167 52.8383 3.025 50.675C4.235 48.5117 5.665 46.4767 7.315 44.57C9.00167 42.6633 10.835 40.9767 12.815 39.51C14.795 38.0067 16.83 36.8333 18.92 35.99C21.0467 35.11 23.155 34.67 25.245 34.67C25.8683 34.67 26.51 34.725 27.17 34.835C28.6367 35.0917 29.7183 35.6417 30.415 36.485C31.1483 37.2917 31.515 38.2267 31.515 39.29C31.515 40.5367 31.1117 41.7833 30.305 43.03C29.4983 44.2767 28.435 45.4683 27.115 46.605C25.8317 47.705 24.42 48.695 22.88 49.575C21.3767 50.455 19.8917 51.17 18.425 51.72C16.9583 52.27 15.6567 52.5817 14.52 52.655C13.8233 52.6917 13.475 52.49 13.475 52.05C13.475 51.83 13.585 51.61 13.805 51.39C14.0617 51.1333 14.41 50.9867 14.85 50.95C17.71 50.6933 20.3683 49.8317 22.825 48.365C25.3183 46.8617 27.225 44.8267 28.545 42.26C28.8383 41.71 29.0583 41.16 29.205 40.61C29.3883 40.0233 29.48 39.4733 29.48 38.96C29.48 38.1533 29.2417 37.475 28.765 36.925C28.325 36.3383 27.5367 36.045 26.4 36.045C25.1533 36.045 23.6867 36.43 22 37.2C20.3133 37.9333 18.535 38.9783 16.665 40.335C14.8317 41.6917 13.0167 43.305 11.22 45.175C9.46 47.0083 7.865 49.025 6.435 51.225C5.04167 53.3883 3.96 55.68 3.19 58.1C2.71333 59.5667 2.475 60.9233 2.475 62.17C2.475 64.4067 3.245 66.0567 4.785 67.12C6.325 68.1467 8.32333 68.66 10.78 68.66C12.9067 68.66 15.235 68.2933 17.765 67.56C20.3317 66.8267 22.825 65.7083 25.245 64.205C27.665 62.665 29.7 60.7217 31.35 58.375C31.46 58.2283 31.5883 58.155 31.735 58.155C31.8817 58.155 32.01 58.2283 32.12 58.375C32.2667 58.5217 32.285 58.6683 32.175 58.815C30.2683 61.455 28.0683 63.6 25.575 65.25C23.1183 66.9 20.57 68.11 17.93 68.88C15.29 69.65 12.7967 70.035 10.45 70.035Z" fill="#FBD279"/>
<path d="M133.951 52.69C133.511 52.58 133.126 52.47 132.796 52.36C132.099 51.9933 131.604 51.5717 131.311 51.095C131.017 50.655 130.871 50.1783 130.871 49.665C130.871 48.8217 131.164 47.905 131.751 46.915C132.301 45.9617 133.034 44.9717 133.951 43.945C134.867 42.845 136.022 41.7267 137.416 40.59C138.846 39.4533 140.331 38.3533 141.871 37.29C143.411 36.2633 144.767 35.365 145.941 34.595C146.564 33.3117 147.206 31.9367 147.866 30.47C148.562 29.0033 149.222 27.5917 149.846 26.235C150.469 24.8417 151.001 23.5767 151.441 22.44C151.917 21.3033 152.266 20.4233 152.486 19.8C151.899 20.4967 151.221 21.3767 150.451 22.44C149.681 23.4667 148.837 24.5667 147.921 25.74C147.004 26.8767 146.051 27.9583 145.061 28.985C144.107 30.0117 143.117 30.855 142.091 31.515C141.064 32.1383 140.056 32.45 139.066 32.45C137.599 32.45 136.572 32.0833 135.986 31.35C135.436 30.58 135.161 29.6817 135.161 28.655C135.161 27.9217 135.252 27.1883 135.436 26.455C135.656 25.7217 135.931 25.0433 136.261 24.42C136.481 23.98 136.829 23.3933 137.306 22.66C137.782 21.9267 138.332 21.175 138.956 20.405C139.579 19.635 140.202 18.9933 140.826 18.48C141.486 17.9667 142.109 17.71 142.696 17.71C143.392 17.71 143.924 17.9667 144.291 18.48C144.657 18.9567 144.694 19.2867 144.401 19.47C143.814 19.8733 143.081 20.4967 142.201 21.34C141.357 22.1467 140.514 23.0817 139.671 24.145C139.451 24.4383 139.176 24.8967 138.846 25.52C138.552 26.1433 138.277 26.8217 138.021 27.555C137.764 28.2517 137.636 28.8933 137.636 29.48C137.636 29.7367 137.672 29.9933 137.746 30.25C137.819 30.47 137.947 30.635 138.131 30.745C138.424 30.965 138.754 31.075 139.121 31.075C139.634 31.075 140.202 30.91 140.826 30.58C141.486 30.25 142.109 29.8283 142.696 29.315C144.749 27.335 146.582 25.2633 148.196 23.1C149.809 20.9367 151.514 18.7917 153.311 16.665C153.421 16.2983 153.732 16.115 154.246 16.115C154.832 16.115 155.437 16.2983 156.061 16.665C156.721 16.995 156.996 17.27 156.886 17.49C156.556 18.2233 156.116 19.195 155.566 20.405C155.052 21.615 154.484 22.9167 153.861 24.31C153.237 25.7033 152.614 27.0967 151.991 28.49C151.367 29.8467 150.799 31.075 150.286 32.175C150.726 31.955 151.514 31.405 152.651 30.525C153.787 29.645 155.034 28.5817 156.391 27.335C157.747 26.0517 158.976 24.7317 160.076 23.375C160.296 23.155 160.461 23.045 160.571 23.045C160.791 23.045 160.901 23.1917 160.901 23.485C160.901 23.7417 160.791 24.035 160.571 24.365C160.021 25.0983 159.251 25.96 158.261 26.95C157.307 27.94 156.262 28.9483 155.126 29.975C154.026 30.965 152.944 31.8633 151.881 32.67C150.817 33.5133 149.901 34.155 149.131 34.595C147.994 37.015 146.894 39.2883 145.831 41.415C144.767 43.5783 143.796 45.32 142.916 46.64C142.329 47.5567 141.614 48.4917 140.771 49.445C139.927 50.3983 139.011 51.1867 138.021 51.81C137.031 52.47 135.986 52.8 134.886 52.8C134.739 52.8 134.592 52.7817 134.446 52.745C134.299 52.745 134.134 52.7267 133.951 52.69ZM134.116 51.48C134.409 51.48 134.757 51.3883 135.161 51.205C135.601 51.0217 136.059 50.7283 136.536 50.325C137.929 49.1883 139.102 47.85 140.056 46.31C141.009 44.8067 141.852 43.2117 142.586 41.525C143.356 39.8383 144.126 38.225 144.896 36.685C143.466 37.7483 141.852 38.995 140.056 40.425C138.259 41.8917 136.627 43.34 135.161 44.77C134.281 45.65 133.639 46.5117 133.236 47.355C132.832 48.235 132.631 49.005 132.631 49.665C132.631 50.875 133.126 51.48 134.116 51.48Z" fill="#FBD279"/>
<path d="M126.655 33.165C126.032 33.165 125.482 33.0183 125.005 32.725C124.529 32.4683 124.199 31.955 124.015 31.185C123.905 30.7817 123.85 30.3783 123.85 29.975C123.85 28.875 124.125 27.8117 124.675 26.785C125.262 25.7217 125.94 24.75 126.71 23.87C127.48 22.9533 128.14 22.1833 128.69 21.56C128.984 21.2667 129.314 20.8817 129.68 20.405C130.084 19.9283 130.285 19.4517 130.285 18.975C130.285 18.6817 130.139 18.4067 129.845 18.15C129.552 17.8567 129.02 17.655 128.25 17.545C127.81 17.4717 127.389 17.4167 126.985 17.38C126.619 17.3067 126.234 17.27 125.83 17.27C124.804 18.6633 123.795 20.075 122.805 21.505C121.852 22.8983 120.825 24.2733 119.725 25.63C119.469 25.8867 119.249 26.015 119.065 26.015C118.845 26.015 118.735 25.905 118.735 25.685C118.735 25.465 118.845 25.245 119.065 25.025C121.045 22.605 122.75 20.02 124.18 17.27C123.997 17.27 123.722 17.27 123.355 17.27C122.989 17.2333 122.695 17.1967 122.475 17.16C122.219 17.0867 122.017 16.9767 121.87 16.83C121.724 16.6833 121.65 16.5367 121.65 16.39C121.65 16.17 121.742 16.0417 121.925 16.005C122.402 15.8583 122.915 15.6383 123.465 15.345C124.015 15.0517 124.529 14.6667 125.005 14.19C125.519 13.6767 125.995 13.145 126.435 12.595C126.875 12.0083 127.224 11.5683 127.48 11.275C127.737 11.0917 128.012 11 128.305 11C128.489 11 128.654 11.055 128.8 11.165C128.984 11.275 129.075 11.44 129.075 11.66C129.075 11.9167 128.965 12.2467 128.745 12.65C128.415 13.1633 128.049 13.7317 127.645 14.355C127.279 14.9783 126.93 15.5467 126.6 16.06C127.26 16.0967 127.92 16.1333 128.58 16.17C129.24 16.2067 129.919 16.225 130.615 16.225C130.982 16.225 131.33 16.225 131.66 16.225C132.027 16.1883 132.394 16.17 132.76 16.17C133.86 16.17 134.41 16.445 134.41 16.995C134.41 17.3617 134.209 17.82 133.805 18.37C133.439 18.8833 132.98 19.4517 132.43 20.075C131.184 21.505 130.12 23.0083 129.24 24.585C128.36 26.1617 127.774 27.3717 127.48 28.215C127.187 29.095 127.04 29.755 127.04 30.195C127.04 31.075 127.389 31.515 128.085 31.515C128.709 31.515 129.46 31.2033 130.34 30.58C131.257 29.9567 132.192 29.205 133.145 28.325C134.099 27.4083 134.96 26.5283 135.73 25.685C136.5 24.805 137.05 24.145 137.38 23.705C137.454 23.595 137.564 23.54 137.71 23.54C137.857 23.54 137.985 23.6133 138.095 23.76C138.205 23.87 138.205 24.0167 138.095 24.2C137.692 24.8233 137.105 25.6117 136.335 26.565C135.565 27.4817 134.704 28.3983 133.75 29.315C132.797 30.2317 131.862 31.02 130.945 31.68C130.469 32.0467 129.809 32.3767 128.965 32.67C128.159 33 127.389 33.165 126.655 33.165Z" fill="#FBD279"/>
<path d="M109.791 33.165C109.167 33.165 108.617 33.0183 108.141 32.725C107.664 32.4683 107.334 31.955 107.151 31.185C107.041 30.7817 106.986 30.3783 106.986 29.975C106.986 28.875 107.261 27.8117 107.811 26.785C108.397 25.7217 109.076 24.75 109.846 23.87C110.616 22.9533 111.276 22.1833 111.826 21.56C112.119 21.2667 112.449 20.8817 112.816 20.405C113.219 19.9283 113.421 19.4517 113.421 18.975C113.421 18.6817 113.274 18.4067 112.981 18.15C112.687 17.8567 112.156 17.655 111.386 17.545C110.946 17.4717 110.524 17.4167 110.121 17.38C109.754 17.3067 109.369 17.27 108.966 17.27C107.939 18.6633 106.931 20.075 105.941 21.505C104.987 22.8983 103.961 24.2733 102.861 25.63C102.604 25.8867 102.384 26.015 102.201 26.015C101.981 26.015 101.871 25.905 101.871 25.685C101.871 25.465 101.981 25.245 102.201 25.025C104.181 22.605 105.886 20.02 107.316 17.27C107.132 17.27 106.857 17.27 106.491 17.27C106.124 17.2333 105.831 17.1967 105.611 17.16C105.354 17.0867 105.152 16.9767 105.006 16.83C104.859 16.6833 104.786 16.5367 104.786 16.39C104.786 16.17 104.877 16.0417 105.061 16.005C105.537 15.8583 106.051 15.6383 106.601 15.345C107.151 15.0517 107.664 14.6667 108.141 14.19C108.654 13.6767 109.131 13.145 109.571 12.595C110.011 12.0083 110.359 11.5683 110.616 11.275C110.872 11.0917 111.147 11 111.441 11C111.624 11 111.789 11.055 111.936 11.165C112.119 11.275 112.211 11.44 112.211 11.66C112.211 11.9167 112.101 12.2467 111.881 12.65C111.551 13.1633 111.184 13.7317 110.781 14.355C110.414 14.9783 110.066 15.5467 109.736 16.06C110.396 16.0967 111.056 16.1333 111.716 16.17C112.376 16.2067 113.054 16.225 113.751 16.225C114.117 16.225 114.466 16.225 114.796 16.225C115.162 16.1883 115.529 16.17 115.896 16.17C116.996 16.17 117.546 16.445 117.546 16.995C117.546 17.3617 117.344 17.82 116.941 18.37C116.574 18.8833 116.116 19.4517 115.566 20.075C114.319 21.505 113.256 23.0083 112.376 24.585C111.496 26.1617 110.909 27.3717 110.616 28.215C110.322 29.095 110.176 29.755 110.176 30.195C110.176 31.075 110.524 31.515 111.221 31.515C111.844 31.515 112.596 31.2033 113.476 30.58C114.392 29.9567 115.327 29.205 116.281 28.325C117.234 27.4083 118.096 26.5283 118.866 25.685C119.636 24.805 120.186 24.145 120.516 23.705C120.589 23.595 120.699 23.54 120.846 23.54C120.992 23.54 121.121 23.6133 121.231 23.76C121.341 23.87 121.341 24.0167 121.231 24.2C120.827 24.8233 120.241 25.6117 119.471 26.565C118.701 27.4817 117.839 28.3983 116.886 29.315C115.932 30.2317 114.997 31.02 114.081 31.68C113.604 32.0467 112.944 32.3767 112.101 32.67C111.294 33 110.524 33.165 109.791 33.165Z" fill="#FBD279"/>
<path d="M90.4019 33.33C88.7519 33.33 87.3219 32.945 86.1119 32.175C84.9019 31.405 84.2969 30.2317 84.2969 28.655C84.2969 27.8117 84.5535 26.785 85.0669 25.575C85.4335 24.7317 86.1119 23.76 87.1019 22.66C88.0919 21.56 89.2469 20.4967 90.5669 19.47C91.8869 18.4067 93.2252 17.545 94.5819 16.885C95.9385 16.1883 97.1669 15.84 98.2669 15.84C98.6702 15.84 99.0369 15.895 99.3669 16.005C99.9902 16.225 100.412 16.5733 100.632 17.05C100.889 17.5267 101.017 18.0217 101.017 18.535C101.017 19.0117 100.944 19.47 100.797 19.91C100.65 20.35 100.467 20.735 100.247 21.065C99.5869 22.055 98.6335 22.935 97.3869 23.705C96.1769 24.475 94.9302 25.08 93.6469 25.52C92.4002 25.96 91.3735 26.2167 90.5669 26.29H90.4569C89.9802 26.29 89.7419 26.1433 89.7419 25.85C89.7419 25.6667 89.8885 25.575 90.1819 25.575C91.0619 25.5017 92.1619 25.0983 93.4819 24.365C94.8385 23.595 96.0302 22.8067 97.0569 22C97.4969 21.6333 98.0102 21.12 98.5969 20.46C99.2202 19.8 99.5319 19.1583 99.5319 18.535C99.5319 17.875 99.2202 17.545 98.5969 17.545C98.2669 17.545 97.9185 17.6183 97.5519 17.765C97.2219 17.9117 96.9469 18.0217 96.7269 18.095C95.6635 18.6083 94.4902 19.415 93.2069 20.515C91.9235 21.5783 90.7502 22.7883 89.6869 24.145C88.6602 25.465 87.9452 26.8033 87.5419 28.16C87.4319 28.4533 87.3585 28.7467 87.3219 29.04C87.2852 29.2967 87.2669 29.5533 87.2669 29.81C87.2669 30.69 87.5419 31.3133 88.0919 31.68C88.6785 32.0467 89.3752 32.23 90.1819 32.23C91.3919 32.23 92.6385 31.9733 93.9219 31.46C95.2052 30.91 96.4519 30.2133 97.6619 29.37C98.8719 28.5267 99.9719 27.6283 100.962 26.675C101.989 25.685 102.85 24.7317 103.547 23.815C103.657 23.6683 103.785 23.595 103.932 23.595C104.079 23.5583 104.17 23.5767 104.207 23.65C104.354 23.6867 104.427 23.7967 104.427 23.98C104.427 24.1267 104.39 24.2733 104.317 24.42C103.29 25.85 102.044 27.2433 100.577 28.6C99.1469 29.9567 97.5519 31.0933 95.7919 32.01C94.0685 32.89 92.2719 33.33 90.4019 33.33Z" fill="#FBD279"/>
<path d="M25.6724 36.74C24.8657 36.74 24.2057 36.4833 23.6924 35.97C23.179 35.4567 22.9224 34.7417 22.9224 33.825C22.9224 33.3117 23.0324 32.7433 23.2524 32.12C23.4357 31.46 23.7657 30.7633 24.2424 30.03C25.0857 28.71 26.1674 27.2433 27.4874 25.63C28.844 23.98 30.274 22.3483 31.7774 20.735C33.2807 19.1217 34.6924 17.655 36.0124 16.335C37.369 14.9783 38.4507 13.9333 39.2574 13.2C39.624 12.1 39.9724 10.9633 40.3024 9.79C40.669 8.61667 41.0357 7.40667 41.4024 6.16C40.3757 7.11333 39.2024 7.82833 37.8824 8.305C36.599 8.78167 35.389 9.05667 34.2524 9.13H34.1974C33.8307 9.13 33.6474 9.00167 33.6474 8.745C33.6474 8.45167 33.8674 8.28667 34.3074 8.25C35.3707 8.14 36.4707 7.73667 37.6074 7.04C38.744 6.30667 39.789 5.39 40.7424 4.29C41.7324 3.15333 42.484 1.94333 42.9974 0.659998C43.0707 0.439999 43.309 0.274999 43.7124 0.165001C44.1524 0.0550001 44.6107 0 45.0874 0C45.4907 0 45.839 0.0550001 46.1324 0.165001C46.4624 0.238333 46.5907 0.403332 46.5174 0.659998C45.8574 2.34666 45.2157 3.97833 44.5924 5.555C43.969 7.095 43.364 8.59833 42.7774 10.065C44.9407 8.23167 46.9574 6.71 48.8274 5.5C50.734 4.25333 52.274 3.59333 53.4474 3.52C55.5374 3.41 57.169 3.75833 58.3424 4.565C59.5524 5.37167 60.3957 6.45333 60.8724 7.81C61.3857 9.13 61.6424 10.5417 61.6424 12.045C61.6424 12.4117 61.624 12.76 61.5874 13.09C61.5874 13.42 61.569 13.75 61.5324 14.08C61.349 15.7667 60.9824 17.6917 60.4324 19.855C59.8824 22.0183 59.2957 24.035 58.6724 25.905C58.599 26.0883 58.489 26.4183 58.3424 26.895C58.1957 27.335 58.1774 27.555 58.2874 27.555C58.324 27.555 58.5074 27.3167 58.8374 26.84C59.754 25.3367 60.634 23.87 61.4774 22.44C62.3574 20.9733 63.2924 19.47 64.2824 17.93C65.749 15.6567 67.344 13.365 69.0674 11.055C70.8274 8.745 72.5874 6.67333 74.3474 4.84C75.044 4.10667 75.759 3.55667 76.4924 3.19C77.2624 2.82333 77.9774 2.64 78.6374 2.64C79.3707 2.64 79.9757 2.89667 80.4524 3.41C80.9657 3.88667 81.2224 4.63833 81.2224 5.665C81.2224 5.92167 81.1857 6.215 81.1124 6.545C81.0757 6.83833 81.0207 7.16833 80.9474 7.535C80.5074 9.295 79.994 10.9083 79.4074 12.375C78.8207 13.8417 78.234 15.29 77.6474 16.72C77.0607 18.1133 76.529 19.58 76.0524 21.12C75.6124 22.66 75.3007 24.365 75.1174 26.235C75.0807 26.565 75.044 26.8767 75.0074 27.17C75.0074 27.4633 75.0074 27.7383 75.0074 27.995C75.0074 29.2417 75.1907 30.1583 75.5574 30.745C75.924 31.295 76.4007 31.57 76.9874 31.57C77.684 31.57 78.4907 31.2767 79.4074 30.69C80.3607 30.0667 81.314 29.315 82.2674 28.435C83.2207 27.5183 84.0824 26.6383 84.8524 25.795C85.6224 24.915 86.1907 24.2183 86.5574 23.705C86.6307 23.595 86.7407 23.54 86.8874 23.54C87.034 23.54 87.1624 23.595 87.2724 23.705C87.3824 23.815 87.3824 23.9617 87.2724 24.145C86.7957 24.8783 86.1174 25.74 85.2374 26.73C84.394 27.6833 83.4957 28.6183 82.5424 29.535C81.6257 30.415 80.8007 31.13 80.0674 31.68C79.5174 32.0833 78.8757 32.4133 78.1424 32.67C77.4457 32.9267 76.749 33.055 76.0524 33.055C75.2457 33.055 74.5124 32.8533 73.8524 32.45C73.1924 32.0467 72.734 31.35 72.4774 30.36C72.3674 29.9933 72.294 29.6083 72.2574 29.205C72.2207 28.8017 72.2024 28.38 72.2024 27.94C72.2024 26.4 72.4224 24.695 72.8624 22.825C73.3024 20.9183 73.8524 19.03 74.5124 17.16C75.1724 15.2533 75.7957 13.53 76.3824 11.99C77.0057 10.4133 77.4824 9.16667 77.8124 8.25C78.069 7.73667 78.1974 7.26 78.1974 6.82C78.1974 6.05 77.8674 5.665 77.2074 5.665C76.6574 5.665 76.0157 5.97667 75.2824 6.6C74.219 7.51667 73.0457 8.70833 71.7624 10.175C70.5157 11.6417 69.2324 13.255 67.9124 15.015C66.629 16.775 65.364 18.59 64.1174 20.46C62.9074 22.2933 61.789 24.0717 60.7624 25.795C59.7724 27.4817 58.9657 28.985 58.3424 30.305C58.0857 30.855 57.7924 31.13 57.4624 31.13C57.2057 31.13 56.949 30.965 56.6924 30.635C56.4724 30.305 56.289 29.9567 56.1424 29.59C56.0324 29.1867 56.014 28.9117 56.0874 28.765C56.564 27.5917 57.004 26.1617 57.4074 24.475C57.8107 22.7517 58.1407 20.9367 58.3974 19.03C58.654 17.0867 58.7824 15.235 58.7824 13.475C58.7824 11.1283 58.489 9.14833 57.9024 7.535C57.3157 5.885 56.289 5.06 54.8224 5.06C53.869 5.06 52.659 5.46333 51.1924 6.27C49.7257 7.07667 48.1307 8.15833 46.4074 9.515C44.7207 10.8717 42.979 12.375 41.1824 14.025C40.8524 14.8317 40.3574 16.005 39.6974 17.545C39.074 19.085 38.3224 20.79 37.4424 22.66C36.599 24.53 35.6457 26.4 34.5824 28.27C33.5557 30.1033 32.4924 31.7167 31.3924 33.11C30.4024 34.3567 29.4124 35.2733 28.4224 35.86C27.4324 36.4467 26.5157 36.74 25.6724 36.74ZM25.9474 34.815C26.9007 34.815 27.8724 34.3017 28.8624 33.275C29.889 32.285 30.8974 31.02 31.8874 29.48C32.914 27.9033 33.849 26.2717 34.6924 24.585C35.5357 22.8983 36.2507 21.34 36.8374 19.91C37.4607 18.48 37.9007 17.4167 38.1574 16.72C37.1307 17.71 36.049 18.81 34.9124 20.02C33.7757 21.1933 32.6574 22.4033 31.5574 23.65C30.494 24.86 29.5224 25.9967 28.6424 27.06C27.7624 28.1233 27.0657 29.0033 26.5524 29.7C25.9657 30.5067 25.5257 31.24 25.2324 31.9C24.9757 32.5233 24.8474 33.0733 24.8474 33.55C24.8474 34.3933 25.214 34.815 25.9474 34.815Z" fill="#FBD279"/>
</svg>
