<svg width="125" height="144" viewBox="0 0 125 144" fill="none" xmlns="http://www.w3.org/2000/svg">
<g filter="url(#filter0_d_7257_17635)">
<path d="M62.3047 108.477C46.7773 108.477 35.6445 99.8828 35.3516 87.5781H50.1953C50.4883 92.8516 55.5664 96.3672 62.4023 96.3672C69.4336 96.3672 74.5117 92.3633 74.4141 86.6992C74.5117 80.9375 69.3359 76.8359 61.0352 76.8359H54.4922V65.9961H61.0352C67.9688 65.9961 72.8516 62.1875 72.8516 56.6211C72.8516 51.25 68.75 47.5391 62.5 47.5391C56.25 47.5391 51.0742 51.0547 50.8789 56.4258H36.8164C37.0117 44.2188 48.0469 35.8203 62.5 35.8203C77.2461 35.8203 87.1094 44.5117 87.0117 55.7422C87.1094 63.6523 81.543 69.3164 73.6328 70.6836V71.2695C83.9844 72.5391 89.7461 78.8867 89.6484 87.6758C89.7461 99.7852 78.2227 108.477 62.3047 108.477Z" fill="white"/>
</g>
<defs>
<filter id="filter0_d_7257_17635" x="0.351562" y="0.820312" width="124.395" height="142.656" filterUnits="userSpaceOnUse" color-interpolation-filters="sRGB">
<feFlood flood-opacity="0" result="BackgroundImageFix"/>
<feColorMatrix in="SourceAlpha" type="matrix" values="0 0 0 0 0 0 0 0 0 0 0 0 0 0 0 0 0 0 127 0" result="hardAlpha"/>
<feOffset/>
<feGaussianBlur stdDeviation="17.5"/>
<feComposite in2="hardAlpha" operator="out"/>
<feColorMatrix type="matrix" values="0 0 0 0 0 0 0 0 0 0 0 0 0 0 0 0 0 0 0.43 0"/>
<feBlend mode="normal" in2="BackgroundImageFix" result="effect1_dropShadow_7257_17635"/>
<feBlend mode="normal" in="SourceGraphic" in2="effect1_dropShadow_7257_17635" result="shape"/>
</filter>
</defs>
</svg>
