<svg width="32" height="32" viewBox="0 0 32 32" fill="none" xmlns="http://www.w3.org/2000/svg">
<path d="M14.853 24.4561C14.6479 24.4561 14.4565 24.4116 14.2788 24.3228C14.1011 24.2339 13.9199 24.0972 13.7354 23.9126L9.25439 19.6675C9.17236 19.5923 9.06641 19.5547 8.93652 19.5547H5.88086C5.2793 19.5547 4.80762 19.3804 4.46582 19.0317C4.12402 18.6831 3.95312 18.1943 3.95312 17.5654V13.6997C3.95312 13.0708 4.12402 12.582 4.46582 12.2334C4.80762 11.8779 5.2793 11.7002 5.88086 11.7002H8.93652C9.06641 11.7002 9.17236 11.6626 9.25439 11.5874L13.7354 7.33203C13.9404 7.14062 14.125 6.99707 14.2891 6.90137C14.4531 6.80566 14.6377 6.75781 14.8428 6.75781C15.1367 6.75781 15.3726 6.85693 15.5503 7.05518C15.728 7.25342 15.8169 7.49609 15.8169 7.7832V23.4717C15.8169 23.7451 15.728 23.9775 15.5503 24.1689C15.3794 24.3604 15.147 24.4561 14.853 24.4561ZM19.6929 19.9033C19.5425 19.7939 19.457 19.6538 19.4365 19.4829C19.416 19.3052 19.4639 19.1343 19.5801 18.9702C19.9219 18.4985 20.1782 17.9824 20.3491 17.4219C20.5269 16.8545 20.6157 16.2461 20.6157 15.5967C20.6157 14.9473 20.5269 14.3389 20.3491 13.7715C20.1782 13.2041 19.9219 12.688 19.5801 12.2231C19.457 12.0591 19.4058 11.8916 19.4263 11.7207C19.4536 11.543 19.5425 11.3994 19.6929 11.29C19.8364 11.1943 19.9868 11.1636 20.144 11.1978C20.3081 11.2251 20.4448 11.314 20.5542 11.4644C20.9438 11.9771 21.2549 12.5923 21.4873 13.3101C21.7197 14.021 21.8359 14.7832 21.8359 15.5967C21.8359 16.4033 21.7197 17.1655 21.4873 17.8833C21.2549 18.6011 20.9438 19.2163 20.5542 19.729C20.4448 19.8794 20.3081 19.9683 20.144 19.9956C19.9868 20.0229 19.8364 19.9922 19.6929 19.9033ZM23.2817 22.6001C23.1382 22.4976 23.0562 22.3643 23.0356 22.2002C23.0151 22.0293 23.063 21.8652 23.1792 21.708C23.7739 20.874 24.2319 19.9341 24.5532 18.8882C24.8813 17.8354 25.0454 16.7383 25.0454 15.5967C25.0454 14.4551 24.8813 13.3579 24.5532 12.3052C24.2319 11.2524 23.7739 10.3125 23.1792 9.48535C23.063 9.32129 23.0151 9.15723 23.0356 8.99316C23.0562 8.8291 23.1382 8.6958 23.2817 8.59326C23.4321 8.49756 23.5859 8.4668 23.7432 8.50098C23.9072 8.52832 24.0439 8.61719 24.1533 8.76758C24.8164 9.63574 25.3325 10.6714 25.7017 11.8745C26.0776 13.0776 26.2656 14.3184 26.2656 15.5967C26.2656 16.875 26.0776 18.1123 25.7017 19.3086C25.3257 20.5049 24.8096 21.5439 24.1533 22.4258C24.0439 22.5762 23.9072 22.665 23.7432 22.6924C23.5859 22.7197 23.4321 22.689 23.2817 22.6001Z" fill="white"/>
</svg>
