<svg width="20" height="20" viewBox="0 0 20 20" fill="none" xmlns="http://www.w3.org/2000/svg">
<path d="M10.25 1.01997C15.35 1.01997 19 5.05997 19 10.02C19 14.98 15.35 19.02 10.25 19.02C8.74263 19.0256 7.2564 18.6654 5.91878 17.9705C4.58115 17.2755 3.43204 16.2665 2.57 15.03L5.16 13.51C6.26 15.01 8.02 16.02 10 16.02C13.3 16.02 16 13.23 16 10.02C16 6.80997 13.3 4.01997 10 4.01997C8.03 4.01997 6.28 5.01997 5.18 6.50997L7 8.01998L0.999999 10.02V3.01997L2.89 4.59997C3.76352 3.48255 4.88055 2.57924 6.156 1.95885C7.43145 1.33845 8.83167 1.01734 10.25 1.01997Z" fill="white"/>
</svg>
