<svg width="20" height="20" viewBox="0 0 20 20" fill="none" xmlns="http://www.w3.org/2000/svg">
<g clip-path="url(#clip0_8263_24272)">
<path d="M15.0794 6.19048H11.2698V13.1746C11.2698 14.0166 10.9354 14.824 10.34 15.4194C9.74467 16.0147 8.93719 16.3492 8.09524 16.3492C7.25328 16.3492 6.44581 16.0147 5.85045 15.4194C5.2551 14.824 4.92064 14.0166 4.92064 13.1746C4.92064 12.3326 5.2551 11.5252 5.85045 10.9298C6.44581 10.3345 7.25328 10 8.09524 10C8.81905 10 9.46667 10.2413 10 10.6349V3.65079H15.0794M17.4603 0H2.53968C1.86612 0 1.22014 0.267573 0.743856 0.743856C0.267573 1.22014 0 1.86612 0 2.53968V17.4603C0 18.1339 0.267573 18.7799 0.743856 19.2561C1.22014 19.7324 1.86612 20 2.53968 20H17.4603C18.1339 20 18.7799 19.7324 19.2561 19.2561C19.7324 18.7799 20 18.1339 20 17.4603V2.53968C20 1.86612 19.7324 1.22014 19.2561 0.743856C18.7799 0.267573 18.1339 0 17.4603 0Z" fill="white"/>
</g>
<defs>
<clipPath id="clip0_8263_24272">
<rect width="20" height="20" fill="white"/>
</clipPath>
</defs>
</svg>
