<svg width="20" height="20" viewBox="0 0 20 20" fill="none" xmlns="http://www.w3.org/2000/svg">
<g clip-path="url(#clip0_8263_24284)">
<path fill-rule="evenodd" clip-rule="evenodd" d="M-3.8147e-06 2.7655C-3.8147e-06 2.23507 0.21071 1.72636 0.585783 1.35129C0.960855 0.976217 1.46956 0.765503 2 0.765503H7.52C7.81977 0.76554 8.11569 0.832962 8.38589 0.962781C8.65608 1.0926 8.89364 1.2815 9.081 1.5155L10.481 3.2655H18C18.5304 3.2655 19.0391 3.47622 19.4142 3.85129C19.7893 4.22636 20 4.73507 20 5.2655V16.7655C20 17.2959 19.7893 17.8046 19.4142 18.1797C19.0391 18.5548 18.5304 18.7655 18 18.7655H2C1.46956 18.7655 0.960855 18.5548 0.585783 18.1797C0.21071 17.8046 -3.8147e-06 17.2959 -3.8147e-06 16.7655V2.7655ZM9.98969 5.9293C10.2549 5.9293 10.5093 6.03466 10.6968 6.22219C10.8843 6.40973 10.9897 6.66408 10.9897 6.9293L11 9.7655L13.6672 9.76467C13.9324 9.76467 14.1868 9.87002 14.3743 10.0576C14.5618 10.2451 14.6672 10.4994 14.6672 10.7647C14.6672 11.0299 14.5618 11.2842 14.3743 11.4718C14.1868 11.6593 13.9324 11.7647 13.6672 11.7647L11 11.7655L10.9909 14.3052C10.9909 14.5705 10.8855 14.8248 10.698 15.0123C10.5105 15.1999 10.2561 15.3052 9.9909 15.3052C9.72569 15.3052 9.47133 15.1999 9.2838 15.0123C9.09626 14.8248 8.9909 14.5705 8.9909 14.3052L9 11.7655L6.29359 11.7316C6.02837 11.7316 5.77402 11.6262 5.58648 11.4387C5.39894 11.2512 5.29359 10.9968 5.29359 10.7316C5.29359 10.4664 5.39894 10.212 5.58648 10.0245C5.77402 9.83695 6.02837 9.7316 6.29359 9.7316L9 9.7655L8.98969 6.9293C8.98969 6.66408 9.09505 6.40973 9.28259 6.22219C9.47012 6.03466 9.72448 5.9293 9.98969 5.9293Z" fill="white"/>
</g>
<defs>
<clipPath id="clip0_8263_24284">
<rect width="20" height="20" fill="white"/>
</clipPath>
</defs>
</svg>
