<svg width="33" height="32" viewBox="0 0 33 32" fill="none" xmlns="http://www.w3.org/2000/svg">
<path d="M28.3447 9.39844V22.5802H27.0339V10.7457H26.961L23.8477 12.8031V11.474L26.9974 9.39844H28.3447Z" fill="#FF9C31"/>
<path d="M14.7501 22.5806V21.1241L19.3201 16.5177C20.7584 15.0066 21.4867 14.1691 21.4867 13.022C21.4867 11.7293 20.4307 10.8918 19.047 10.8918C17.5904 10.8918 16.6436 11.8204 16.6436 13.2223H14.7501C14.7319 10.819 16.5708 9.2168 19.0834 9.2168C21.6323 9.2168 23.3802 10.819 23.3984 12.9674C23.3802 14.4422 22.6883 15.6074 20.2122 18.0471L17.5358 20.7599V20.8692H23.6169V22.5806H14.7501Z" fill="#FF9C31"/>
<path d="M9.65009 22.7627C6.7552 22.7627 4.67962 21.1605 4.625 18.8664H7.39244C7.44706 19.8496 8.39382 20.505 9.6683 20.505C10.9792 20.505 11.9259 19.7586 11.9077 18.7026C11.9259 17.6284 10.961 16.8637 9.4134 16.8637H8.19354V14.8427H9.4134C10.7061 14.8427 11.6164 14.1326 11.6164 13.0949C11.6164 12.0935 10.8517 11.4016 9.68651 11.4016C8.52127 11.4016 7.5563 12.0571 7.51989 13.0584H4.8981C4.93452 10.7826 6.99189 9.2168 9.68651 9.2168C12.4357 9.2168 14.2746 10.8372 14.2564 12.931C14.2746 14.4057 13.2368 15.4617 11.7621 15.7166V15.8259C13.692 16.0626 14.7662 17.246 14.748 18.8846C14.7662 21.1423 12.6178 22.7627 9.65009 22.7627Z" fill="#FF9C31"/>
</svg>
