<svg width="36" height="36" viewBox="0 0 36 36" fill="none" xmlns="http://www.w3.org/2000/svg">
<g clip-path="url(#clip0_7935_17937)">
<path d="M2.7793 23.3916V27.6807L8.31836 33.2197H12.6064V35.999H0V23.3916H2.7793Z" fill="#E07400"/>
<path d="M35.998 35.999H23.3916V33.2197H27.6797L33.2188 27.6807V23.3916H35.998V35.999Z" fill="#E07400"/>
<path d="M20.6865 35.998H15.3125V33.2197H20.6865V35.998Z" fill="#E07400"/>
<path d="M12.6064 27.3467V30.5137H9.43945L5.48535 26.5586V23.3916H8.65234L12.6064 27.3467Z" fill="#E07400"/>
<path d="M30.5137 26.5605L26.5596 30.5137H23.3916V27.3477L27.3467 23.3936H30.5137V26.5605Z" fill="#E07400"/>
<path d="M22.499 24.4121L20.6865 26.2246V30.5137H15.3135V26.2256C14.6356 25.5477 14.0511 24.9623 13.501 24.4121L17.999 19.9121L22.499 24.4121Z" fill="#E07400"/>
<path d="M16.0869 18L11.5859 22.5C11.0358 21.9499 10.4513 21.3635 9.77344 20.6855H5.48535V15.3125H9.77344L11.5859 13.5L16.0869 18Z" fill="#E07400"/>
<path d="M26.2256 15.3135H30.5137V20.6865H26.2256C25.5477 21.3644 24.9623 21.9489 24.4121 22.499L19.9131 17.999L24.4121 13.501C24.9623 14.0511 25.5477 14.6356 26.2256 15.3135Z" fill="#E07400"/>
<path d="M2.7793 15.3125V20.6865H0V15.3125H2.7793Z" fill="#E07400"/>
<path d="M35.998 20.6865H33.2188V15.3125H35.998V20.6865Z" fill="#E07400"/>
<path d="M20.6865 9.77344L22.499 11.5859L18 16.085L13.501 11.5859L15.3135 9.77344V5.48535H20.6865V9.77344Z" fill="#E07400"/>
<path d="M12.6064 2.7793H8.31836L2.7793 8.31836V12.6064H0V0H12.6064V2.7793Z" fill="#E07400"/>
<path d="M12.6055 8.65332L8.65234 12.6064H5.48535V9.43945L9.43848 5.48633H12.6055V8.65332Z" fill="#E07400"/>
<path d="M30.5137 9.43945V12.6064H27.3467L23.3916 8.65234V5.48535H26.5586L30.5137 9.43945Z" fill="#E07400"/>
<path d="M35.998 12.6064H33.2188V8.31836L27.6797 2.7793H23.3916V0H35.998V12.6064Z" fill="#E07400"/>
<path d="M20.6865 2.7793H15.3125V0H20.6865V2.7793Z" fill="#E07400"/>
</g>
<defs>
<clipPath id="clip0_7935_17937">
<rect width="36" height="36" fill="white"/>
</clipPath>
</defs>
</svg>
