<svg width="225" height="225" viewBox="0 0 225 225" fill="none" xmlns="http://www.w3.org/2000/svg">
<g clip-path="url(#clip0_5348_55074)">
<mask id="mask0_5348_55074" style="mask-type:luminance" maskUnits="userSpaceOnUse" x="13" y="13" width="95" height="95">
<path d="M13.0311 107.162H107.177V13.0215C56.4006 15.7011 15.7108 56.3909 13.0311 107.162Z" fill="white"/>
</mask>
<g mask="url(#mask0_5348_55074)">
<path d="M-23.7532 89.5534L-32.6036 98.4038L99.6101 230.618L108.461 221.767L-23.7532 89.5534Z" fill="#292929"/>
<path d="M-8.51649 74.3243L-17.3669 83.1748L114.847 215.389L123.697 206.538L-8.51649 74.3243Z" fill="#292929"/>
<path d="M6.71337 59.0866L-2.13708 67.937L130.077 200.151L138.927 191.3L6.71337 59.0866Z" fill="#292929"/>
<path d="M21.9479 43.8576L13.0974 52.708L145.311 184.922L154.162 176.071L21.9479 43.8576Z" fill="#292929"/>
<path d="M37.18 28.6256L28.3296 37.4761L160.543 169.69L169.394 160.839L37.18 28.6256Z" fill="#292929"/>
<path d="M52.4144 13.3966L43.564 22.2471L175.778 154.461L184.628 145.61L52.4144 13.3966Z" fill="#292929"/>
<path d="M67.6444 -1.84118L58.7939 7.00928L191.008 139.223L199.858 130.373L67.6444 -1.84118Z" fill="#292929"/>
<path d="M82.881 -17.0697L74.0305 -8.21924L206.244 123.995L215.095 115.144L82.881 -17.0697Z" fill="#292929"/>
<path d="M98.111 -32.3075L89.2605 -23.457L221.474 108.757L230.325 99.9063L98.111 -32.3075Z" fill="#292929"/>
</g>
<path d="M13.0283 117.835C15.708 168.607 56.4035 209.302 107.175 211.982V117.835H13.0283ZM83.7291 134.949C85.9252 132.753 88.639 132.48 90.1466 133.982C91.6543 135.484 91.3812 138.203 89.1795 140.399C86.7388 142.84 83.5926 142.652 78.6144 145.508C81.5103 140.644 81.095 137.577 83.7234 134.943L83.7291 134.949ZM69.1304 125.277C71.2582 125.277 72.9877 127.388 72.9877 130.5C72.9877 133.953 70.6324 136.041 69.1304 141.583C67.7365 136.092 65.2731 134.221 65.2731 130.5C65.2731 127.393 66.9969 125.277 69.1304 125.277ZM39.3982 155.004C39.3982 152.876 41.5089 151.146 44.6209 151.146C48.0743 151.146 50.1623 153.502 55.7037 155.004C50.2135 156.397 48.3417 158.861 44.6209 158.861C41.5146 158.861 39.3982 157.137 39.3982 155.004ZM54.526 175.058C52.3299 177.254 49.6161 177.527 48.1085 176.025C46.6008 174.524 46.8739 171.804 49.0757 169.608C51.5164 167.167 54.6625 167.355 59.6407 164.499C56.7448 169.363 57.1601 172.43 54.5317 175.064L54.526 175.058ZM49.07 140.399C46.8739 138.203 46.6008 135.489 48.1028 133.982C49.6048 132.474 52.3242 132.747 54.5203 134.949C56.961 137.39 56.7733 140.536 59.6293 145.514C54.7649 142.618 51.6984 143.033 49.0643 140.405L49.07 140.399ZM69.1304 184.73C67.0026 184.73 65.2731 182.619 65.2731 179.507C65.2731 176.054 67.6284 173.966 69.1304 168.425C70.5243 173.915 72.9877 175.787 72.9877 179.507C72.9877 182.614 71.2639 184.73 69.1304 184.73ZM69.1304 161.802C65.3755 161.802 62.3317 158.759 62.3317 155.004C62.3317 151.249 65.3755 148.205 69.1304 148.205C72.8853 148.205 75.9291 151.249 75.9291 155.004C75.9291 158.759 72.8853 161.802 69.1304 161.802ZM90.1466 176.025C88.639 177.533 85.9252 177.26 83.7291 175.058C81.2884 172.618 81.4762 169.471 78.6201 164.493C83.4845 167.389 86.551 166.974 89.1851 169.602C91.3812 171.798 91.6543 174.512 90.1523 176.02L90.1466 176.025ZM93.6342 158.861C90.1808 158.861 88.0928 156.506 82.5514 155.004C88.0416 153.61 89.9134 151.146 93.6342 151.146C96.7405 151.146 98.8569 152.87 98.8569 155.004C98.8569 157.137 96.7462 158.861 93.6342 158.861Z" fill="#292929"/>
<path d="M117.842 13.0225V107.169H211.989C209.309 56.3976 168.613 15.7021 117.842 13.0225ZM170.491 49.9403C172.687 47.7442 175.401 47.4711 176.908 48.9731C178.416 50.4751 178.143 53.1945 175.941 55.3906C173.501 57.8313 170.354 57.6436 165.376 60.4996C168.272 55.6352 167.857 52.5687 170.485 49.9346L170.491 49.9403ZM155.887 40.2685C158.014 40.2685 159.744 42.3792 159.744 45.4912C159.744 48.9446 157.389 51.0326 155.887 56.574C154.493 51.0838 152.029 49.212 152.029 45.4912C152.029 42.3849 153.753 40.2685 155.887 40.2685ZM126.16 69.995C126.16 67.8672 128.271 66.1377 131.383 66.1377C134.836 66.1377 136.924 68.493 142.466 69.995C136.975 71.3889 135.104 73.8523 131.383 73.8523C128.276 73.8523 126.16 72.1285 126.16 69.995ZM141.282 90.0497C139.086 92.2458 136.372 92.5189 134.865 91.0169C133.357 89.5149 133.63 86.7955 135.832 84.5994C138.273 82.1587 141.419 82.3465 146.397 79.4904C143.501 84.3548 143.916 87.4213 141.288 90.0554L141.282 90.0497ZM135.832 55.3963C133.636 53.2002 133.363 50.4864 134.865 48.9788C136.367 47.4711 139.086 47.7442 141.282 49.9459C143.723 52.3867 143.535 55.5328 146.391 60.511C141.527 57.6151 138.46 58.0304 135.826 55.402L135.832 55.3963ZM155.887 99.7272C153.759 99.7272 152.029 97.6165 152.029 94.5045C152.029 91.0511 154.385 88.9631 155.887 83.4217C157.28 88.9119 159.744 90.7837 159.744 94.5045C159.744 97.6108 158.02 99.7272 155.887 99.7272ZM155.887 76.7994C152.132 76.7994 149.088 73.7556 149.088 70.0007C149.088 66.2458 152.132 63.202 155.887 63.202C159.641 63.202 162.685 66.2458 162.685 70.0007C162.685 73.7556 159.641 76.7994 155.887 76.7994ZM176.908 91.0169C175.401 92.5246 172.687 92.2515 170.491 90.0497C168.05 87.609 168.238 84.4629 165.382 79.4847C170.246 82.3806 173.313 81.9653 175.947 84.5937C178.143 86.7898 178.416 89.5036 176.914 91.0112L176.908 91.0169ZM180.39 73.8523C176.937 73.8523 174.849 71.497 169.308 69.995C174.798 68.6011 176.67 66.1377 180.39 66.1377C183.497 66.1377 185.613 67.8615 185.613 69.995C185.613 72.1285 183.502 73.8523 180.39 73.8523Z" fill="#292929"/>
<path d="M112.505 225C50.4748 225 0.00512695 174.536 0.00512695 112.5C0.00512695 50.4635 50.4748 -0.000488281 112.505 -0.000488281C174.535 -0.000488281 225.005 50.4692 225.005 112.5C225.005 174.53 174.535 225 112.505 225ZM112.505 4.55094C52.9838 4.55094 4.55656 52.9782 4.55656 112.5C4.55656 172.021 52.9838 220.448 112.505 220.448C172.026 220.448 220.454 172.021 220.454 112.5C220.454 52.9782 172.032 4.55094 112.505 4.55094Z" fill="#292929"/>
<mask id="mask1_5348_55074" style="mask-type:luminance" maskUnits="userSpaceOnUse" x="117" y="117" width="95" height="95">
<path d="M117.84 211.977C168.612 209.297 209.307 168.607 211.987 117.831H117.84V211.977Z" fill="white"/>
</mask>
<g mask="url(#mask1_5348_55074)">
<path d="M295.296 201.156H108.318V213.672H295.296V201.156Z" fill="#292929"/>
<path d="M295.296 179.609H108.318V192.126H295.296V179.609Z" fill="#292929"/>
<path d="M295.296 158.07H108.318V170.587H295.296V158.07Z" fill="#292929"/>
<path d="M295.296 136.524H108.318V149.041H295.296V136.524Z" fill="#292929"/>
<path d="M295.296 114.979H108.318V127.496H295.296V114.979Z" fill="#292929"/>
</g>
</g>
<defs>
<clipPath id="clip0_5348_55074">
<rect width="225" height="225" fill="white"/>
</clipPath>
</defs>
</svg>
