<svg width="226" height="225" viewBox="0 0 226 225" fill="none" xmlns="http://www.w3.org/2000/svg">
<path fill-rule="evenodd" clip-rule="evenodd" d="M225.431 109.472H211.706V58.5139C220.027 73.7123 224.944 91.0404 225.431 109.472ZM187.761 28.4252C192.439 32.5941 196.768 37.1477 200.696 42.0363V109.472H187.761L187.761 28.4252ZM176.751 19.7751C172.883 17.106 168.839 14.6727 164.641 12.496L164.641 109.472H176.751V19.7751ZM140.696 3.38424C145.118 4.50739 149.435 5.89226 153.631 7.52141V109.472H140.696L140.696 3.38424ZM129.686 1.16924C125.535 0.548561 121.31 0.154483 117.025 0V109.472H129.686V1.16924ZM225.192 120.482C224.971 123.639 224.62 126.76 224.144 129.84H117.025V120.482H225.192ZM117.025 140.85H221.871C220.749 145.177 219.375 149.403 217.767 153.512H117.025V140.85ZM117.025 164.521V178.832H203.863C207.169 174.306 210.145 169.524 212.756 164.521H117.025ZM117.025 201.954V189.842H194.697C190.549 194.227 186.052 198.28 181.25 201.954H117.025ZM117.025 212.964V225C133.792 224.396 149.624 220.124 163.744 212.964H117.025ZM106.015 109.472V0.13263C48.0438 3.62853 1.9063 50.9951 0.362305 109.472H106.015ZM106.015 224.867V120.482H0.600986C0.822146 123.639 1.17349 126.76 1.64967 129.84H83.7222H94.732V140.85V223.616C98.4354 224.217 102.199 224.637 106.015 224.867ZM83.7222 221.257V140.85H3.92232C5.04485 145.177 6.4183 149.403 8.02621 153.512H11.0547H60.0479H71.0576V164.521V213.515V217.043C75.1652 218.688 79.3923 220.099 83.7222 221.257ZM47.3903 204.063C51.4192 206.951 55.6465 209.579 60.0479 211.923V164.521H13.037C15.1771 168.621 17.5623 172.573 20.1731 176.357H47.3903V204.063Z" fill="#292929"/>
</svg>
