<svg width="225" height="225" viewBox="0 0 225 225" fill="none" xmlns="http://www.w3.org/2000/svg">
<g clip-path="url(#clip0_5348_55071)">
<mask id="mask0_5348_55071" style="mask-type:luminance" maskUnits="userSpaceOnUse" x="0" y="0" width="225" height="225">
<path d="M225 0H0V224.032H225V0Z" fill="white"/>
</mask>
<g mask="url(#mask0_5348_55071)">
<path d="M153.437 30.23L120.192 87.5576L48.5092 46.3549L53.4794 42.1922C66.3735 31.3907 82.0348 24.3387 98.77 21.8029C115.742 19.2331 133.022 21.446 148.743 28.2057L153.435 30.2222L153.437 30.23ZM116.859 75.1747L140.359 34.6519C127.523 30.0547 113.722 28.7096 100.142 30.7688C87.2531 32.7222 75.0678 37.6442 64.5546 45.1105L116.864 75.1776L116.859 75.1747Z" fill="#292929"/>
<path d="M163.175 35.8276L167.275 38.8648C181.016 49.0394 191.581 62.8317 197.831 78.7496C203.993 94.4464 205.694 111.479 202.74 127.993L201.604 134.36L129.922 93.1574L163.167 35.8297L163.175 35.8276ZM194.677 119.904C195.91 107.104 194.104 94.1398 189.359 82.0507C184.355 69.309 176.289 58.0851 165.873 49.3173L142.373 89.8402L194.682 119.907L194.677 119.904Z" fill="#292929"/>
<path d="M104.808 136.476L176.491 177.677L171.52 181.841C158.626 192.642 142.968 199.689 126.23 202.229C109.258 204.8 91.9778 202.587 76.2569 195.827L71.5649 193.811L104.81 136.483L104.808 136.476ZM160.45 178.925L108.141 148.858L84.6409 189.38C97.4761 193.978 111.277 195.323 124.858 193.264C137.747 191.311 149.932 186.389 160.445 178.922L160.45 178.925Z" fill="#292929"/>
<path d="M23.3875 89.6748L95.0699 130.877L61.8218 188.21L57.7216 185.173C43.9811 174.998 33.4161 161.206 27.1657 145.288C21.0039 129.591 19.3027 112.56 22.2565 96.0443L23.3924 89.6777L23.3875 89.6748ZM82.632 134.196L30.3228 104.128C29.0896 116.928 30.8958 129.893 35.6409 141.982C40.6449 154.724 48.7106 165.948 59.1272 174.716L82.627 134.193L82.632 134.196Z" fill="#292929"/>
<path d="M168.757 15.0073C193.266 29.0947 211.417 51.6506 219.863 78.5254C228.254 105.232 226.378 133.861 214.569 159.142L212.47 163.634L17.6144 51.6312L20.4722 47.5758C36.559 24.7536 60.5242 8.82132 87.9514 2.70335C115.549 -3.44759 144.249 0.919911 168.757 15.0073ZM208.304 150.772C217.343 128.694 218.389 104.193 211.169 81.2345C203.405 56.5377 186.724 35.8084 164.202 22.8626C141.679 9.91683 115.302 5.89623 89.9419 11.5539C66.3605 16.8078 45.5714 29.9599 30.8851 48.792L208.304 150.772Z" fill="#292929"/>
<path d="M12.5269 60.4039L207.383 172.407L204.525 176.461C188.438 199.284 164.473 215.216 137.046 221.334C109.448 227.485 80.7513 223.112 56.2428 209.025C31.7343 194.937 13.5825 172.382 5.1371 145.507C-3.25959 118.798 -1.37821 90.1718 10.4309 64.8907L12.5297 60.3989L12.5269 60.4039ZM194.112 175.245L16.6925 73.2654C7.65405 95.3438 6.60782 119.844 13.8284 142.803C21.5918 167.499 38.273 188.229 60.7954 201.175C83.3178 214.12 109.695 218.141 135.055 212.483C158.636 207.23 179.426 194.077 194.112 175.245Z" fill="#292929"/>
<path d="M102.532 140.4L110.417 144.933L140.092 93.7624L132.206 89.23L102.532 140.4Z" fill="#292929"/>
<path d="M84.9083 130.27L92.7936 134.803L122.468 83.6326L114.583 79.1001L84.9083 130.27Z" fill="#292929"/>
<path d="M148.657 98.6857L156.542 103.218L164.302 89.8381L156.416 85.3057L148.657 98.6857Z" fill="#292929"/>
<path d="M98.1368 69.6471L106.022 74.1796L113.781 60.7995L105.896 56.2671L98.1368 69.6471Z" fill="#292929"/>
<path d="M88.5708 51.5487C92.3127 50.0818 101.423 48.4687 101.423 48.4687C104.579 47.9212 107.777 47.6072 110.967 47.5237L103.617 60.1971L111.502 64.7296L126.218 39.3531L119.113 38.7229C108.703 37.7962 97.957 39.1364 88.032 42.597L78.667 45.8625L88.563 51.5508L88.5708 51.5487Z" fill="#292929"/>
<path d="M162.022 93.7682L169.372 81.0946C170.899 83.8891 172.22 86.8008 173.322 89.7959C173.322 89.7959 176.474 98.4569 177.069 102.417L186.965 108.104L185.123 98.3975C183.17 88.11 178.963 78.1751 172.952 69.663L168.851 63.8516L154.135 89.228L162.02 93.7604L162.022 93.7682Z" fill="#292929"/>
<path d="M55.6299 142.945C54.1078 140.154 52.7868 137.242 51.685 134.247C51.685 134.247 48.5332 125.586 47.9383 121.626L38.0422 115.938L39.8841 125.645C41.8364 135.933 46.0433 145.867 52.0495 154.377L56.1506 160.189L70.8669 134.812L62.9816 130.28L55.632 142.953L55.6299 142.945Z" fill="#292929"/>
<path d="M105.889 185.317C116.294 186.241 127.035 184.898 136.965 181.441L146.33 178.175L136.434 172.487C132.692 173.954 123.582 175.567 123.582 175.567C120.426 176.114 117.233 176.431 114.043 176.515L121.393 163.841L113.507 159.309L98.7911 184.685L105.897 185.316L105.889 185.317Z" fill="#292929"/>
<path d="M134.722 53.4256L152.35 63.5585L156.903 55.7081L139.274 45.5752L134.722 53.4256Z" fill="#292929"/>
</g>
</g>
<defs>
<clipPath id="clip0_5348_55071">
<rect width="225" height="225" fill="white"/>
</clipPath>
</defs>
</svg>
