<svg width="225" height="225" viewBox="0 0 225 225" fill="none" xmlns="http://www.w3.org/2000/svg">
<path d="M112.5 224.996C50.4707 224.996 0 174.527 0 112.495C0 50.4628 50.4707 0 112.5 0C174.529 0 225 50.4685 225 112.495C225 174.521 174.529 224.99 112.5 224.99V224.996ZM112.5 4.537C52.9719 4.537 4.5372 52.9695 4.5372 112.495C4.5372 172.02 52.9719 220.453 112.5 220.453C172.028 220.453 220.463 172.02 220.463 112.495C220.463 52.9695 172.034 4.537 112.5 4.537Z" fill="#292929"/>
<path d="M128.01 127.91C128.049 135.459 129.66 143.824 133.823 149.875L150.015 133.683C143.941 129.532 135.553 127.933 128.01 127.91Z" fill="#292929"/>
<path d="M97.7131 68.2874C100.254 71.4973 102.284 75.3538 103.731 79.7944C106.64 88.7152 106.527 97.483 106.203 101.912C106.022 104.413 103.844 106.29 101.348 106.103C101.235 106.098 101.122 106.075 101.008 106.064C89.9828 106.699 77.2843 104.544 68.4311 97.5737L53.6511 112.353L68.4878 127.189C71.6185 124.79 75.339 122.862 79.6039 121.478C87.9013 118.773 96.057 118.682 100.719 118.943C100.827 118.926 100.94 118.909 101.054 118.903C103.555 118.722 105.727 120.599 105.908 123.094C106.725 134.233 104.706 147.294 97.696 156.402L112.504 171.209L127.33 156.385C124.914 153.243 122.968 149.5 121.573 145.212C118.664 136.291 118.777 127.524 119.1 123.094C119.282 120.593 121.465 118.716 123.955 118.903C124.069 118.909 124.182 118.932 124.295 118.943C135.179 118.319 147.702 120.406 156.538 127.172L171.352 112.359L156.555 97.5624C153.356 100.08 149.517 102.094 145.104 103.534C136.807 106.239 128.651 106.33 123.989 106.069C123.881 106.086 123.768 106.103 123.655 106.109C121.148 106.296 118.981 104.413 118.8 101.918C117.972 90.6435 120.053 77.4011 127.273 68.2761L112.499 53.5024L97.7074 68.2931L97.7131 68.2874Z" fill="#292929"/>
<path d="M74.9302 91.064C81.0327 95.3969 89.591 97.0642 97.2873 97.0869C97.2476 89.391 95.5688 80.8501 91.2244 74.7705L74.9302 91.064Z" fill="#292929"/>
<path d="M133.777 74.7759C129.433 80.8555 127.754 89.3964 127.714 97.0922C135.411 97.0696 143.969 95.4022 150.071 91.0694L133.777 74.7759Z" fill="#292929"/>
<path d="M83.4376 156.596L83.6418 156.493C83.9367 156.352 84.226 156.199 84.5096 156.04L68.7938 140.325C68.6237 140.631 68.4592 140.943 68.3061 141.26L68.204 141.465C65.2945 146.83 63.8312 153.646 64.5515 160.236C71.1758 160.985 78.0384 159.522 83.4376 156.596Z" fill="#292929"/>
<path d="M164.529 87.7573C164.002 88.8462 163.395 89.8897 162.731 90.8935L177.636 105.798C184.833 96.0714 181.663 79.2221 176.785 73.3694C174.698 70.8627 172.237 68.9571 169.554 67.562C169.696 74.0216 168.21 80.9292 164.529 87.7573Z" fill="#292929"/>
<path d="M141.36 156.493L141.565 156.596C146.964 159.522 153.826 160.985 160.451 160.236C161.165 153.646 159.708 146.83 156.798 141.465L156.696 141.26C156.543 140.943 156.379 140.631 156.208 140.325L140.493 156.04C140.776 156.199 141.065 156.352 141.36 156.493Z" fill="#292929"/>
<path d="M83.9382 68.5028L83.734 68.4007C78.3347 65.4743 71.4722 64.0111 64.8479 64.7597C64.1333 71.3497 65.5908 78.1666 68.5003 83.5316L68.6024 83.7357C68.6932 83.9229 68.7896 84.0987 68.886 84.2802L84.4146 68.7523C84.2558 68.6672 84.1026 68.5822 83.9382 68.5028Z" fill="#292929"/>
<path d="M141.272 68.4007L141.067 68.5028C140.903 68.5822 140.75 68.6672 140.591 68.7523L156.12 84.2802C156.216 84.0987 156.312 83.9229 156.403 83.7357L156.505 83.5316C159.415 78.1666 160.878 71.3441 160.158 64.7597C153.533 64.0111 146.671 65.4743 141.272 68.4007Z" fill="#292929"/>
<path d="M91.18 149.875C95.3429 143.824 96.9536 135.453 96.9933 127.91C89.4445 127.933 81.062 129.532 74.9822 133.683L91.1743 149.875H91.18Z" fill="#292929"/>
<path d="M162.794 133.739C163.543 134.834 164.229 135.997 164.831 137.239C168.511 144.067 169.997 150.974 169.855 157.434C172.532 156.039 175 154.128 177.087 151.627C182.021 145.706 185.203 128.539 177.676 118.864L162.8 133.739H162.794Z" fill="#292929"/>
<path d="M137.341 164.624C136.145 164.046 135.005 163.371 133.91 162.628L119.017 177.521C128.67 185.103 145.9 181.922 151.832 176.976C154.373 174.861 156.301 172.354 157.702 169.632C157.368 169.643 157.033 169.66 156.693 169.66C150.477 169.66 143.875 168.14 137.341 164.624Z" fill="#292929"/>
<path d="M91.0993 162.634C90.0218 163.365 88.8818 164.034 87.6624 164.624C81.1288 168.146 74.5272 169.66 68.3169 169.66C67.9766 169.66 67.6477 169.643 67.3074 169.632C68.7082 172.354 70.6365 174.855 73.1717 176.976C79.1041 181.922 96.3285 185.103 105.987 177.521L91.0937 162.628L91.0993 162.634Z" fill="#292929"/>
<path d="M133.958 62.1229C134.933 61.4821 135.954 60.8923 137.037 60.3705C143.922 56.6615 150.881 55.1757 157.387 55.3458C155.986 52.6293 154.063 50.1282 151.528 48.0185C145.664 43.1299 128.762 39.9597 119.042 47.2075L133.958 62.1229Z" fill="#292929"/>
<path d="M112.498 15.0747C58.6926 15.0747 15.073 58.6923 15.073 112.495C15.073 166.299 58.6926 209.916 112.498 209.916C166.304 209.916 209.923 166.299 209.923 112.495C209.923 58.6923 166.309 15.0747 112.498 15.0747ZM168.136 167.875C166.071 174.443 162.305 180.057 157.638 183.948C152.471 188.252 143.504 191.156 134.305 191.156C126.473 191.156 118.476 189.046 112.504 183.919C106.526 189.046 98.5292 191.156 90.6969 191.156C81.4977 191.156 72.531 188.252 67.3643 183.948C62.6966 180.057 58.9364 174.443 56.8663 167.875C50.3668 165.8 44.8087 162.062 40.9464 157.434C32.9779 147.873 29.8246 125.307 40.9634 112.314C30.1876 99.2588 33.3523 77.0275 41.247 67.5621C45.1093 62.9287 50.6674 59.1914 57.1669 57.1157C59.2313 50.5484 62.9972 44.9395 67.6592 41.049C77.1533 33.1376 99.465 29.9788 112.498 40.8335C125.543 29.9788 147.849 33.1433 157.337 41.049C162.005 44.9395 165.765 50.5484 167.829 57.1157C174.335 59.1914 179.893 62.9344 183.749 67.5621C191.644 77.0331 194.809 99.2701 184.033 112.314C195.172 125.312 192.013 147.873 184.05 157.434C180.193 162.062 174.63 165.8 168.13 167.875H168.136Z" fill="#292929"/>
<path d="M87.9575 60.37C89.0237 60.8861 90.0503 61.4816 91.0371 62.1281L105.959 47.207C96.2435 39.9535 79.3368 43.1294 73.4724 48.018C70.9373 50.1334 69.009 52.6287 67.6138 55.3453C74.119 55.1751 81.0779 56.661 87.9631 60.37H87.9575Z" fill="#292929"/>
<path d="M62.2657 90.8992C61.6135 89.9067 61.0066 88.8632 60.4735 87.7573C56.7927 80.9292 55.3067 74.0216 55.4485 67.562C52.7716 68.9571 50.3045 70.8684 48.2174 73.3694C43.3399 79.2221 40.1695 96.0657 47.3666 105.798L62.2657 90.8992Z" fill="#292929"/>
<path d="M60.1747 137.239C60.7646 136.019 61.4508 134.857 62.2108 133.745L47.3288 118.864C39.8027 128.528 42.9844 145.7 47.9186 151.627C50.0057 154.133 52.4672 156.039 55.1498 157.434C55.008 150.974 56.4939 144.067 60.1747 137.239Z" fill="#292929"/>
</svg>
