<svg width="226" height="225" viewBox="0 0 226 225" fill="none" xmlns="http://www.w3.org/2000/svg">
<path fill-rule="evenodd" clip-rule="evenodd" d="M225.5 112.5C225.5 174.632 175.132 225 113 225C50.868 225 0.5 174.632 0.5 112.5C0.5 50.368 50.868 0 113 0C175.132 0 225.5 50.368 225.5 112.5ZM199.634 135.481H211.837C210.875 139.487 209.662 143.434 208.202 147.3C207.836 148.269 207.455 149.233 207.058 150.191C202.108 162.141 194.853 172.998 185.708 182.144C176.562 191.29 165.704 198.545 153.754 203.495C145.462 206.929 136.756 209.207 127.882 210.28C123.968 210.753 120.022 210.992 116.063 210.992V199.173L116.063 147.3V135.481H127.882H151.961V123.881H127.882H116.063V112.062V100.243V88.4235H127.882H200.11H211.929V100.243V112.062V123.881H200.11H163.78V135.481H199.634ZM127.882 147.3V198.363C135.201 197.356 142.376 195.415 149.231 192.575C159.747 188.219 169.302 181.835 177.35 173.787C184.98 166.157 191.115 157.173 195.443 147.3H127.882ZM127.882 100.243H200.11V112.062H127.882V100.243ZM163.776 52.0919V63.0364H195.812C200.387 67.0786 204.215 71.483 207.168 76.1686H116.064V63.0364H150.644V52.0919H116.064V38.9596H150.644V20.7155C155.192 22.4299 159.579 24.4727 163.776 26.8149V38.9596H180.924C185.441 42.9467 189.589 47.3435 193.307 52.0919H163.776ZM13.2878 135.481H25.4905H62.6599L62.6599 123.881H25.0146H13.1956V112.062V100.243V88.4235H25.0146H97.2422H109.061V100.243V112.062V123.881H97.2422H74.479V135.481H97.2422H109.061V147.3L109.061 199.173V210.992C105.103 210.992 101.156 210.753 97.2422 210.28C88.3679 209.207 79.6624 206.929 71.37 203.495C59.4203 198.545 48.5626 191.29 39.4168 182.144C30.2709 172.998 23.0161 162.141 18.0664 150.191C17.6695 149.233 17.288 148.269 16.9221 147.3C15.462 143.434 14.2489 139.487 13.2878 135.481ZM97.2422 198.363V147.3H29.6815C34.0098 157.173 40.1442 166.157 47.7741 173.787C55.8225 181.835 65.3773 188.219 75.8929 192.575C82.748 195.415 89.9238 197.356 97.2422 198.363ZM25.0146 100.243H97.2422V112.062H25.0146V100.243ZM61.3475 63.0364V52.0919H31.8166C35.5353 47.3435 39.6823 42.9467 44.1995 38.9596H61.3475V26.8149C65.5447 24.4727 69.9318 22.4299 74.4798 20.7155V38.9596H109.06V52.0919H74.4798V63.0364H109.06V76.1686H17.9565C19.775 71.6129 21.9253 67.2255 24.3776 63.0364H61.3475Z" fill="#292929"/>
</svg>
