<svg width="36" height="36" viewBox="0 0 36 36" fill="none" xmlns="http://www.w3.org/2000/svg">
<g clip-path="url(#clip0_8132_20243)">
<path d="M18 36C8.0748 36 0 27.9252 0 18C0 8.0748 8.0748 0 18 0C27.9252 0 36 8.0748 36 18C36 27.9252 27.9252 36 18 36ZM18 1.59518C8.95374 1.59518 1.59518 8.95374 1.59518 18C1.59518 27.0463 8.95374 34.4048 18 34.4048C27.0463 34.4048 34.4048 27.0463 34.4048 18C34.4048 8.95374 27.0463 1.59518 18 1.59518Z" fill="#E07400"/>
<path d="M21.7184 11.8633L26.48 5.31026L21.9736 5.65163L18.528 2.72607V10.8264L19.9094 12.0004L21.7184 11.8633Z" fill="#E07400"/>
<path d="M17.4114 10.8264V2.72607L13.9642 5.65163L9.45941 5.31026L14.2194 11.8633L16.0284 12.0004L17.4114 10.8264Z" fill="#E07400"/>
<path d="M24.939 19.6508L32.6453 22.1553L30.9226 17.9727L32.6453 13.7917L24.939 16.2962L24.2483 17.9727L24.939 19.6508Z" fill="#E07400"/>
<path d="M13.3166 12.5204L8.55494 5.96582L7.48777 10.3605L3.6386 12.7294L11.3449 15.2338L12.889 14.2831L13.3166 12.5204Z" fill="#E07400"/>
<path d="M24.5945 15.2338L32.2992 12.7294L28.45 10.3605L27.3828 5.96582L22.6212 12.5204L23.0487 14.2831L24.5945 15.2338Z" fill="#E07400"/>
<path d="M14.2194 24.084L9.45941 30.637L13.9642 30.2956L17.4114 33.2211V25.1208L16.0284 23.9468L14.2194 24.084Z" fill="#E07400"/>
<path d="M18.528 25.1208V33.2211L21.9736 30.2956L26.48 30.637L21.7184 24.084L19.9094 23.9468L18.528 25.1208Z" fill="#E07400"/>
<path d="M23.0487 21.6641L22.6212 23.4268L27.3828 29.9814L28.45 25.5866L32.2992 23.2162L24.5945 20.7134L23.0487 21.6641Z" fill="#E07400"/>
<path d="M10.9988 16.2962L3.29404 13.7917L5.01524 17.9727L3.29404 22.1553L10.9988 19.6508L11.6895 17.9727L10.9988 16.2962Z" fill="#E07400"/>
<path d="M11.3449 20.7134L3.6386 23.2162L7.48777 25.5866L8.55494 29.9814L13.3166 23.4268L12.889 21.6641L11.3449 20.7134Z" fill="#E07400"/>
<path d="M22.0079 18C22.0079 15.7865 20.2135 13.9921 18 13.9921C15.7866 13.9921 13.9922 15.7865 13.9922 18C13.9922 20.2135 15.7866 22.0079 18 22.0079C20.2135 22.0078 22.0079 20.2134 22.0079 18ZM23.1739 18C23.1739 20.8574 20.8575 23.1738 18 23.1739C15.1426 23.1739 12.826 20.8575 12.826 18C12.826 15.1425 15.1425 12.8259 18 12.8259C20.8575 12.826 23.1739 15.1425 23.1739 18Z" fill="#E07400"/>
<path d="M18 17.0716C18.629 17.0716 19.139 16.5617 19.139 15.9327C19.139 15.3036 18.629 14.7937 18 14.7937C17.371 14.7937 16.861 15.3036 16.861 15.9327C16.861 16.5617 17.371 17.0716 18 17.0716Z" fill="#E07400"/>
<path d="M20.0674 19.139C20.6964 19.139 21.2063 18.6291 21.2063 18C21.2063 17.371 20.6964 16.8611 20.0674 16.8611C19.4383 16.8611 18.9284 17.371 18.9284 18C18.9284 18.6291 19.4383 19.139 20.0674 19.139Z" fill="#E07400"/>
<path d="M18 21.2064C18.629 21.2064 19.139 20.6965 19.139 20.0674C19.139 19.4384 18.629 18.9285 18 18.9285C17.371 18.9285 16.861 19.4384 16.861 20.0674C16.861 20.6965 17.371 21.2064 18 21.2064Z" fill="#E07400"/>
<path d="M15.9327 19.139C16.5617 19.139 17.0716 18.6291 17.0716 18C17.0716 17.371 16.5617 16.8611 15.9327 16.8611C15.3036 16.8611 14.7937 17.371 14.7937 18C14.7937 18.6291 15.3036 19.139 15.9327 19.139Z" fill="#E07400"/>
</g>
<defs>
<clipPath id="clip0_8132_20243">
<rect width="36" height="36" fill="white"/>
</clipPath>
</defs>
</svg>
