<svg width="225" height="225" viewBox="0 0 225 225" fill="none" xmlns="http://www.w3.org/2000/svg">
<g clip-path="url(#clip0_5348_55079)">
<path d="M124.477 51.1224C127.356 51.1224 129.69 48.7885 129.69 45.9096C129.69 43.0306 127.356 40.6968 124.477 40.6968C121.599 40.6968 119.265 43.0306 119.265 45.9096C119.265 48.7885 121.599 51.1224 124.477 51.1224Z" fill="#292929"/>
<path d="M112.503 108.596L66.235 80.9718C65.7091 80.6366 53.3186 72.4822 55.7227 53.2665C58.2367 33.1782 76.4352 24.677 87.3174 24.0355C95.0672 23.579 102.233 26.0467 106.481 30.6353C109.798 34.2126 111.18 38.8359 110.48 43.9967C109.949 47.707 107.683 50.6601 104.418 51.92C101.679 52.9775 98.7197 52.5961 96.7027 50.9202C94.8303 49.3714 94.4258 46.5858 95.7087 44.147C96.9859 41.7197 99.9506 39.7433 103.684 40.8124L102.441 45.1699C102.881 44.8578 103.447 44.2279 103.615 43.0374C104.031 39.9802 103.285 37.3854 101.401 35.3511C98.5868 32.3113 93.3508 30.6353 87.7335 30.9647C78.4348 31.5138 64.4955 39.0613 62.6115 54.1334C60.8142 68.5119 69.2228 74.6147 69.9626 75.1233L112.515 100.528L155.072 75.1175C155.691 74.6956 164.221 68.6044 162.412 54.1334C160.528 39.0613 146.588 31.5138 137.29 30.9647C131.678 30.6353 126.437 32.3171 123.622 35.3511C121.732 37.3854 120.993 39.9802 121.409 43.0605C121.576 44.2279 122.143 44.8521 122.582 45.1641L121.339 40.8066C125.073 39.7433 128.032 41.714 129.315 44.1412C130.598 46.58 130.193 49.3656 128.321 50.9144C126.304 52.5903 123.345 52.9718 120.605 51.9142C117.34 50.6543 115.075 47.7012 114.549 44.0141C113.844 38.8302 115.225 34.2126 118.542 30.6295C122.79 26.0409 129.956 23.579 137.706 24.0297C148.588 24.6712 166.792 33.1724 169.301 53.2607C171.705 72.4764 159.314 80.6251 158.788 80.966L158.696 81.0238L112.515 108.596H112.503ZM123.114 47.0597C123.114 47.1811 123.125 47.2793 123.154 47.3486C123.166 47.3775 123.189 47.4007 123.218 47.4122L123.114 47.0539V47.0597ZM101.892 47.0597L101.788 47.4122C101.788 47.4122 101.84 47.3775 101.846 47.3486C101.875 47.2793 101.887 47.1753 101.887 47.0597H101.892Z" fill="#292929"/>
<path d="M100.523 51.1224C103.402 51.1224 105.736 48.7885 105.736 45.9096C105.736 43.0306 103.402 40.6968 100.523 40.6968C97.6439 40.6968 95.3101 43.0306 95.3101 45.9096C95.3101 48.7885 97.6439 51.1224 100.523 51.1224Z" fill="#292929"/>
<path d="M112.503 17.7998C105.25 17.7998 98.7891 18.6898 98.7891 18.6898C103.638 22.1053 109.764 27.3817 112.503 36.0908C115.242 27.3817 121.368 22.1053 126.217 18.6898C126.217 18.6898 119.762 17.7998 112.503 17.7998Z" fill="#292929"/>
<path d="M48.8395 140.636C51.7185 140.636 54.0523 138.302 54.0523 135.423C54.0523 132.544 51.7185 130.21 48.8395 130.21C45.9606 130.21 43.6267 132.544 43.6267 135.423C43.6267 138.302 45.9606 140.636 48.8395 140.636Z" fill="#292929"/>
<path d="M76.9783 193.914C63.8134 193.914 53.0757 185.523 48.4813 178.547C44.2105 172.063 42.7657 164.625 44.615 158.65C46.0598 153.986 49.3655 150.478 54.1853 148.507C57.6586 147.114 61.3515 147.594 64.0734 149.796C66.362 151.64 67.5063 154.39 67.0671 156.979C66.6567 159.372 64.4549 161.123 61.6982 161.227C58.9647 161.308 55.7688 159.753 54.821 155.991L59.219 154.893C58.7277 154.674 57.9013 154.494 56.7859 154.939C53.931 156.107 52.0586 158.049 51.2379 160.701C50.0128 164.654 51.1801 170.035 54.272 174.733C59.3923 182.512 72.904 190.811 86.8953 184.904C100.245 179.27 101.326 168.937 101.395 168.047L102.118 118.496L58.8317 94.3449C58.1614 94.0213 48.62 89.6754 36.9923 98.477C24.8792 107.643 25.3126 123.495 29.4852 131.817C32.0107 136.845 36.085 140.544 40.1188 141.462C42.8235 142.075 45.4472 141.428 47.9034 139.521C48.8338 138.792 49.0881 137.989 49.1401 137.452L45.9905 140.705C43.1991 138.006 43.4303 134.458 44.8924 132.135C46.3603 129.8 48.9725 128.766 51.2553 129.609C53.7172 130.522 55.5261 132.892 55.9768 135.793C56.5201 139.255 55.0926 142.693 52.1684 144.988C48.0305 148.189 43.3378 149.305 38.5816 148.218C32.4846 146.831 26.7632 141.861 23.2841 134.92C18.395 125.177 16.6612 105.164 32.8024 92.9406C48.2443 81.2552 61.4959 87.907 62.0507 88.1959L62.1432 88.2479L109.11 114.456L108.319 168.341C108.29 168.965 107.423 183.772 89.5826 191.296C85.2252 193.134 80.9833 193.914 76.9667 193.914H76.9783ZM61.4208 154.298C61.4208 154.298 61.4093 154.298 61.4035 154.298C61.3283 154.31 61.2359 154.35 61.1319 154.408L61.4902 154.321C61.4902 154.321 61.4439 154.298 61.4208 154.298ZM50.7814 135.764L50.5271 136.03C50.6311 135.972 50.7062 135.909 50.7583 135.851C50.7756 135.828 50.7814 135.799 50.7814 135.764Z" fill="#292929"/>
<path d="M60.8197 161.383C63.6987 161.383 66.0325 159.049 66.0325 156.17C66.0325 153.291 63.6987 150.958 60.8197 150.958C57.9408 150.958 55.6069 153.291 55.6069 156.17C55.6069 159.049 57.9408 161.383 60.8197 161.383Z" fill="#292929"/>
<path d="M30.4849 159.852C34.1142 166.134 38.1134 171.283 38.1134 171.283C38.645 165.377 40.1534 157.43 46.3255 150.704C37.4141 152.686 29.7798 150.022 24.3994 147.531C24.3994 147.531 26.8556 153.57 30.4849 159.852Z" fill="#292929"/>
<path d="M164.18 161.383C167.059 161.383 169.393 159.049 169.393 156.17C169.393 153.291 167.059 150.957 164.18 150.957C161.301 150.957 158.967 153.291 158.967 156.17C158.967 159.049 161.301 161.383 164.18 161.383Z" fill="#292929"/>
<path d="M148.022 193.914C144.005 193.914 139.769 193.133 135.406 191.296C117.565 183.771 116.699 168.965 116.67 168.341V168.237L115.878 114.462L162.938 88.2013C163.492 87.9123 176.75 81.2605 192.186 92.946C208.327 105.163 206.593 125.176 201.704 134.926C198.225 141.867 192.504 146.837 186.407 148.224C181.651 149.304 176.958 148.195 172.837 145.005C169.89 142.693 168.468 139.254 169.006 135.793C169.462 132.892 171.271 130.522 173.727 129.609C176.004 128.765 178.622 129.805 180.09 132.134C181.552 134.458 181.783 138.006 178.992 140.705L175.842 137.451C175.894 137.989 176.155 138.792 177.097 139.532C179.535 141.422 182.153 142.075 184.864 141.456C188.898 140.537 192.978 136.844 195.497 131.811C199.67 123.483 200.103 107.637 187.99 98.4709C176.438 89.727 166.943 93.9573 166.139 94.3445L122.865 118.496L123.587 168.058C123.645 168.803 124.656 179.24 138.087 184.904C152.084 190.81 165.59 182.511 170.711 174.733C173.808 170.034 174.97 164.654 173.745 160.701C172.924 158.048 171.052 156.106 168.174 154.927C167.076 154.488 166.255 154.667 165.764 154.887L170.162 155.985C169.22 159.747 166.035 161.308 163.29 161.221C160.533 161.117 158.326 159.372 157.921 156.973C157.482 154.384 158.626 151.633 160.915 149.79C163.643 147.594 167.33 147.108 170.786 148.495C175.629 150.478 178.934 153.985 180.379 158.643C182.228 164.619 180.784 172.057 176.513 178.541C171.918 185.517 161.175 193.908 148.016 193.908L148.022 193.914ZM163.51 154.321L163.868 154.413C163.764 154.355 163.672 154.315 163.596 154.303C163.568 154.303 163.539 154.303 163.51 154.326V154.321ZM174.219 135.764C174.219 135.793 174.224 135.827 174.242 135.85C174.288 135.908 174.369 135.972 174.473 136.03L174.219 135.764Z" fill="#292929"/>
<path d="M176.16 140.636C179.039 140.636 181.373 138.302 181.373 135.423C181.373 132.544 179.039 130.21 176.16 130.21C173.281 130.21 170.948 132.544 170.948 135.423C170.948 138.302 173.281 140.636 176.16 140.636Z" fill="#292929"/>
<path d="M194.515 159.851C198.144 153.569 200.6 147.53 200.6 147.53C195.22 150.021 187.586 152.685 178.674 150.703C184.846 157.43 186.355 165.371 186.886 171.283C186.886 171.283 190.886 166.139 194.515 159.851Z" fill="#292929"/>
<path d="M112.503 225C50.4694 225 0 174.531 0 112.503C0 50.4752 50.4694 0 112.503 0C174.536 0 225.006 50.4694 225.006 112.503C225.006 174.536 174.536 225.006 112.503 225.006V225ZM112.503 11.5583C56.838 11.5583 11.5583 56.838 11.5583 112.503C11.5583 168.168 56.838 213.447 112.503 213.447C168.168 213.447 213.447 168.168 213.447 112.503C213.447 56.838 168.162 11.5583 112.503 11.5583Z" fill="#292929"/>
</g>
<defs>
<clipPath id="clip0_5348_55079">
<rect width="225" height="225" fill="white"/>
</clipPath>
</defs>
</svg>
