<svg width="36" height="38" viewBox="0 0 36 38" fill="none" xmlns="http://www.w3.org/2000/svg">
<path d="M0 11.9573C0.0930676 11.7598 0.147001 11.3179 0.237918 11.068C0.632807 9.96092 1.47767 9.07263 2.56358 8.62277C2.98765 8.44743 3.43786 8.34361 3.89591 8.31552C4.44544 8.28595 5.12612 8.30385 5.68614 8.30386L8.86438 8.30397L18.6335 8.30415L27.5701 8.30404L30.4543 8.30399C31.5192 8.30392 32.4715 8.21149 33.4798 8.64395C34.5057 9.08516 35.3118 9.91928 35.7177 10.9596C35.8112 11.1985 35.8567 11.3739 35.9088 11.6255C35.9285 11.7207 35.9687 11.9504 36 12.0303V32.2876L35.9947 32.3036C35.914 32.5621 35.8884 32.8436 35.7949 33.1278C35.4589 34.1508 34.7414 35.005 33.7918 35.5126C33.5145 35.6612 33.2921 35.757 32.9873 35.8415C32.853 35.8788 32.4373 35.9535 32.3378 35.9999H3.68209C3.61153 35.969 3.41582 35.9282 3.3319 35.9125C1.96596 35.6564 0.750212 34.6337 0.265521 33.3159C0.204641 33.1501 0.155376 32.9801 0.118086 32.8075C0.0914375 32.6887 0.0508094 32.4401 0 32.3392V11.9573ZM19.9067 26.9231L22.4401 25.3395C22.9518 25.019 23.9196 24.4583 24.3051 24.0598C24.648 23.7029 24.8887 23.2603 25.0015 22.7783C25.1694 22.0545 25.0409 21.2933 24.6445 20.6649C24.204 19.9667 23.4512 19.5969 22.7681 19.1694L20.5571 17.7856L17.9923 16.1807C17.5687 15.9151 16.979 15.5207 16.5487 15.2881C16.3284 15.1666 16.0918 15.0774 15.846 15.0234C15.6015 14.9693 15.4404 14.9602 15.1942 14.9681C14.4289 14.9802 13.7844 15.237 13.2446 15.7888C12.868 16.1743 12.6139 16.6627 12.5145 17.1924C12.44 17.5824 12.4585 18.1461 12.4586 18.5571L12.4593 20.4408L12.4592 24.4792C12.4591 25.1712 12.4575 25.8642 12.4597 26.5564C12.462 27.327 12.7544 28.0486 13.3152 28.5863C13.8511 29.1015 14.5725 29.3782 15.3155 29.3534C15.6496 29.3439 15.9791 29.2722 16.2869 29.142C16.6695 28.9809 17.4087 28.491 17.795 28.2462C18.4874 27.8076 19.2222 27.368 19.9067 26.9231Z" fill="url(#paint0_linear_8309_37781)"/>
<path d="M15.2302 17.759C15.4002 17.8116 15.8049 18.0862 15.9687 18.1883L17.3323 19.0405C18.8977 20.0192 20.4657 20.9978 22.0303 21.9778C22.0963 22.0191 22.2393 22.0994 22.2654 22.1606C22.1184 22.2908 21.5601 22.625 21.3645 22.7475L19.555 23.8799C18.1259 24.797 16.6563 25.6868 15.2188 26.595C15.2419 26.3815 15.2277 25.9135 15.2275 25.6759L15.2266 23.8743L15.2302 17.759Z" fill="url(#paint1_linear_8309_37781)"/>
<path d="M6.88694 4.15524C7.38264 4.13794 7.97199 4.15162 8.47328 4.15162H11.4722L20.4966 4.15177L26.3311 4.1513L28.173 4.15119C28.4525 4.15121 28.9176 4.13766 29.1828 4.16107C29.4578 4.18291 29.7204 4.28532 29.9376 4.45549C30.2257 4.68279 30.4101 5.01674 30.4488 5.38173C30.4917 5.75038 30.384 6.12074 30.15 6.40877C29.8814 6.74211 29.5353 6.88923 29.1189 6.93249C28.6263 6.95433 28.0355 6.94086 27.5361 6.94086L24.7264 6.94084L16.1265 6.9409L9.91795 6.9412L7.96263 6.94105C7.31973 6.94098 6.58309 7.03896 6.05261 6.61783C5.7705 6.39471 5.59024 6.0673 5.55253 5.7096C5.46387 4.83843 6.03338 4.22833 6.88694 4.15524Z" fill="url(#paint2_linear_8309_37781)"/>
<path d="M10.7977 0H25.1845C25.2333 0.0316422 25.3348 0.0628179 25.3926 0.0851762C25.7143 0.20953 25.9579 0.400314 26.1298 0.70575C26.3082 1.02928 26.3516 1.41017 26.2509 1.76562C26.1481 2.12091 25.9083 2.42084 25.5845 2.59947C25.1472 2.84101 24.5553 2.78474 24.063 2.78492H22.614L18.2175 2.78452L13.5752 2.78469L12.0982 2.78536C11.7104 2.78547 11.0137 2.81394 10.6667 2.70835C10.315 2.59808 10.0208 2.35396 9.84744 2.02867C9.5012 1.37701 9.76442 0.497463 10.4223 0.154662C10.5392 0.0937524 10.6751 0.0664362 10.7977 0Z" fill="url(#paint3_linear_8309_37781)"/>
<defs>
<linearGradient id="paint0_linear_8309_37781" x1="18" y1="8.29565" x2="18" y2="35.9999" gradientUnits="userSpaceOnUse">
<stop stop-color="#FF9C31"/>
<stop offset="1" stop-color="#FF5C00"/>
</linearGradient>
<linearGradient id="paint1_linear_8309_37781" x1="18.7421" y1="17.759" x2="18.7421" y2="26.595" gradientUnits="userSpaceOnUse">
<stop stop-color="#FF9C31"/>
<stop offset="1" stop-color="#FF5C00"/>
</linearGradient>
<linearGradient id="paint2_linear_8309_37781" x1="18.0008" y1="4.14648" x2="18.0008" y2="6.95089" gradientUnits="userSpaceOnUse">
<stop stop-color="#FF9C31"/>
<stop offset="1" stop-color="#FF5C00"/>
</linearGradient>
<linearGradient id="paint3_linear_8309_37781" x1="17.9993" y1="0" x2="17.9993" y2="2.79048" gradientUnits="userSpaceOnUse">
<stop stop-color="#FF9C31"/>
<stop offset="1" stop-color="#FF5C00"/>
</linearGradient>
</defs>
</svg>
